<?xml version="1.0" encoding="utf-8"?>
<!-- Generator: Adobe Illustrator 19.0.0, SVG Export Plug-In . SVG Version: 6.00 Build 0)  -->
<svg version="1.1" id="Слой_1" xmlns="http://www.w3.org/2000/svg" xmlns:xlink="http://www.w3.org/1999/xlink" x="0px" y="0px"
	 viewBox="-291 416.4 11.1 9.5" enable-background="new -291 416.4 11.1 9.5" xml:space="preserve">
<path fill="#234448" d="M-291,416.4v9.5h11.1v-9.5H-291z M-281,424.7h-8.9v-7h6.3c0,0,0.1,0.9,0.9,1.6c0.8,0.7,1.7,0.7,1.7,0.7
	V424.7z M-285.3,423c0,1.1-4,1.1-4,0c0-1.1,0.9-2,2-2C-286.2,421-285.3,421.9-285.3,423z M-284.8,422.5h2.5v0.8h-2.5V422.5z
	 M-284.8,421h2.5v0.8h-2.5V421z M-286.1,420.1c-0.2,0.5-0.7,0.8-1.2,0.8c-0.7,0-1.3-0.6-1.3-1.3v-0.1c0.3,0.3,0.9,0.6,1.3,0.7
	l0.8,0.2l-0.3-0.5C-286.6,420-286.4,420.1-286.1,420.1C-286.2,420.1-286.1,420.1-286.1,420.1z M-287.3,419.8
	c-0.5-0.1-1.3-0.6-1.2-0.8c0.2-0.5,0.7-0.8,1.2-0.8c0.7,0,1.3,0.6,1.3,1.4C-286,420.3-287.9,418.7-287.3,419.8z"/>
</svg>
