<svg xmlns="http://www.w3.org/2000/svg" x="0px" y="0px" viewBox="0 0 11.1 9.5">
	<path fill="#234448" d="M0,0v9.5h11.1V0H0z M10,8.3H1.1v-7h6.3c0,0,0.1,0.9,0.9,1.6C9.1,3.6,10,3.6,10,3.6V8.3z M5.7,6.6
		c0,1.1-4,1.1-4,0c0-1.1,0.9-2,2-2C4.8,4.6,5.7,5.5,5.7,6.6z M6.2,6.1h2.5v0.8H6.2V6.1z M6.2,4.6h2.5v0.8H6.2V4.6z M4.9,3.7
		C4.7,4.2,4.2,4.5,3.7,4.5c-0.7,0-1.3-0.6-1.3-1.3c0,0,0-0.1,0-0.1c0.3,0.3,0.9,0.6,1.3,0.7l0.8,0.2L4.2,3.5
		C4.4,3.6,4.6,3.7,4.9,3.7C4.8,3.7,4.9,3.7,4.9,3.7z M3.7,3.4C3.2,3.3,2.4,2.8,2.5,2.6c0.2-0.5,0.7-0.8,1.2-0.8C4.4,1.8,5,2.4,5,3.2
		C5,3.9,3.1,2.3,3.7,3.4z"></path>
</svg>
