<svg id="Слой_1" xmlns="http://www.w3.org/2000/svg" viewBox="0 0 22.7 23.8">
    <style>
        .st0{fill:#ea6852}
    </style>
    <path class="st0" d="M11.3 2.1C5.3 2.1.5 7 .5 12.9c0 6 4.9 10.8 10.8 10.8 6 0 10.8-4.9 10.8-10.8.1-6-4.8-10.8-10.8-10.8zm0 20.4c-5.3 0-9.6-4.3-9.6-9.6S6 3.3 11.3 3.3s9.6 4.3 9.6 9.6-4.3 9.6-9.6 9.6z"/>
    <path class="st0" d="M8.4 1c-.9-.6-2-1-3.1-1C2.4 0 0 2.4 0 5.3c0 .7.1 1.4.4 2C2 4.2 4.9 1.9 8.4 1zm13.9 6.3c.3-.6.4-1.3.4-2 0-2.9-2.4-5.3-5.3-5.3-1.2 0-2.3.4-3.1 1 3.5.9 6.4 3.2 8 6.3zm-9.7 6.5h2.2c.5 0 .9-.4.9-.9s-.4-.9-.9-.9h-2.2c-.3-.4-.8-.7-1.3-.7l-2-2.8c-.3-.3-.9-.4-1.3-.1-.4.2-.5.8-.2 1.2l2 2.8c-.1.2-.1.4-.1.5 0 .9.7 1.6 1.6 1.6.5 0 1-.2 1.3-.7zm0 0"/>
</svg>
