<svg xmlns="http://www.w3.org/2000/svg" x="0px" y="0px" viewBox="0 0 15.9 17">
	<path fill="#234448" d="M13.8,7.1c0-2.5-1.7-4.7-4.1-5.4c-0.1,0-0.1-0.2-0.1-0.2C9.5,0.7,8.8,0,8,0
			C7.1,0,6.4,0.7,6.4,1.5c0,0.1,0,0.2-0.1,0.2C3.9,2.4,2.2,4.6,2.2,7.1c0,1.5-0.2,3-0.6,4h12.7C14,10.1,13.8,8.7,13.8,7.1z M8,1.5
			c-0.3,0-0.7,0-1,0.1c0-0.5,0.5-1,1-1s1,0.4,1,1C8.6,1.5,8.3,1.5,8,1.5z"></path>
	<path fill="#234448" d="M15.5,13.1c-0.2-0.3-0.5,0-0.6-1h-0.5H1.1c-0.2,1-0.4,0.8-0.6,1c-0.2,0.3-1.2,2,0.6,2
			c0,0,4.3,0,4.6,0c0.3,0,0.4,0.3,0.4,0.4C6.3,16.3,7.1,17,8,17c0.9,0,1.7-0.7,1.9-1.5c0-0.1,0.1-0.3,0.4-0.3c0.3,0,4.6,0,4.6,0
			C16.7,15.1,15.7,13.4,15.5,13.1z"></path>
</svg>
