<?xml version="1.0" encoding="utf-8"?>
<!-- Generator: Adobe Illustrator 19.0.0, SVG Export Plug-In . SVG Version: 6.00 Build 0)  -->
<svg version="1.1" id="Слой_1" xmlns="http://www.w3.org/2000/svg" xmlns:xlink="http://www.w3.org/1999/xlink" x="0px" y="0px"
	 viewBox="-288 412.9 18 16" enable-background="new -288 412.9 18 16" xml:space="preserve">
<path fill="#224347" d="M-280.7,421.8v1.6h1.1c0.1-0.4,0.2-0.8,0.4-1.1v-0.4L-280.7,421.8L-280.7,421.8z"/>
<path fill="#224347" d="M-280.7,426.1h1.4c-0.2-0.5-0.3-1-0.3-1.6h-1.1C-280.7,424.4-280.7,426.1-280.7,426.1z"/>
<path fill="#224347" d="M-280.7,419.2h1.5v1.6h-1.5V419.2z"/>
<path fill="#224347" d="M-278.2,416c0.5,0,1-0.5,1-1.1v-1c0-0.5-0.5-1.1-1-1.1c-0.5,0-1,0.5-1,1.1v1.1
	C-279.2,415.6-278.7,416-278.2,416z"/>
<path fill="#224347" d="M-278.8,427.1h-8.1v-9h11.4v1.4c0.2-0.1,0.5-0.1,0.8-0.1c0.1,0,0.2,0,0.2,0v-4c0-0.6-0.5-1.1-1-1.1h-1.1v0.5
	c0,0.8-0.7,1.6-1.5,1.6s-1.5-0.7-1.5-1.6v-0.5h-3.2v0.5c0,0.8-0.7,1.6-1.5,1.6s-1.5-0.7-1.5-1.6v-0.5h-1.1c-0.6,0-1.1,0.5-1.1,1
	v11.6c0,0.6,0.5,1.1,1.1,1.1h9.1C-278.2,427.9-278.6,427.5-278.8,427.1L-278.8,427.1z"/>
<path fill="#224347" d="M-284.4,416c0.5,0,1-0.5,1-1V414c0-0.6-0.5-1.1-1-1.1c-0.5,0-1,0.5-1,1.1v1.1
	C-285.4,415.6-284.9,416-284.4,416z"/>
<path fill="#224347" d="M-283.3,424.5h1.5v1.6h-1.5V424.5z"/>
<path fill="#224347" d="M-276.6,419.2h-1.5v1.6c0.5-0.4,0.9-0.8,1.5-1V419.2L-276.6,419.2z"/>
<path fill="#224347" d="M-285.9,419.2h1.5v1.6h-1.5V419.2z"/>
<path fill="#224347" d="M-285.9,421.8h1.5v1.6h-1.5V421.8z"/>
<path fill="#224347" d="M-285.9,424.5h1.5v1.6h-1.5V424.5z"/>
<path fill="#224347" d="M-283.3,421.8h1.5v1.6h-1.5V421.8z"/>
<path fill="#224347" d="M-283.3,419.2h1.5v1.6h-1.5V419.2z"/>
<path fill="#224347" d="M-274.8,419.9c-2.4,0-4.5,2-4.5,4.5c0,2.5,2,4.5,4.5,4.5c2.5,0,4.5-2,4.5-4.5
	C-270.2,421.9-272.3,419.9-274.8,419.9z M-271.9,426.9h-5.7v-0.4c0-0.9,0.8-1.7,1.7-1.8c-0.4-0.3-0.6-0.8-0.6-1.3
	c0-1,0.8-1.8,1.8-1.8s1.8,0.8,1.8,1.8c0,0.5-0.2,1-0.6,1.3c0.4,0.1,0.8,0.2,1.1,0.5c0.3,0.3,0.5,0.8,0.5,1.3L-271.9,426.9
	L-271.9,426.9z"/>
</svg>
