<svg xmlns="http://www.w3.org/2000/svg" x="0px" y="0px" viewBox="-576 821.8 17.5 20">
	<path fill="#234448" d="M-559.8,841.8h-14.8c-0.8,0-1.4-0.6-1.4-1.4v-15.2c0-0.8,0.6-1.4,1.4-1.4h1.3v0.7c0,1.1,0.9,2.1,2,2.1
	c1.1,0,2-0.9,2-2.1v-0.6h4.1v0.7c0,1.1,0.9,2.1,2,2.1s2-0.9,2-2.1v-0.7h1.4c0.7,0,1.3,0.6,1.3,1.4v15.2
	C-558.4,841.2-559,841.8-559.8,841.8z M-559.8,828.7h-14.8v11.7h14.9L-559.8,828.7L-559.8,828.7z M-571.3,832.1h-2v-2h2V832.1z
	 M-571.3,835.6h-2v-2.1h2V835.6z M-571.3,839h-2v-2.1h2V839z M-567.9,832.1h-2v-2h2V832.1z M-567.9,835.6h-2v-2.1h2V835.6z
	 M-567.9,839h-2v-2.1h2V839z M-564.5,832.1h-2v-2h2V832.1z M-564.5,835.6h-2v-2.1h2V835.6z M-564.5,839h-2v-2.1h2V839z
	 M-561.1,832.1h-2v-2h2V832.1z M-561.1,835.6h-2v-2.1h2V835.6z M-561.1,839h-2v-2.1h2V839z M-563.2,825.9c-0.7,0-1.3-0.6-1.3-1.4
	v-1.3c0-0.7,0.6-1.4,1.3-1.4c0.7,0,1.3,0.6,1.3,1.4v1.4C-561.9,825.3-562.5,825.9-563.2,825.9z M-571.3,825.9
	c-0.7,0-1.3-0.6-1.3-1.3v-1.4c0-0.8,0.6-1.4,1.3-1.4c0.7,0,1.3,0.6,1.3,1.4v1.4C-570,825.3-570.6,825.9-571.3,825.9z"></path>
</svg>
