<svg id="Слой_1" xmlns="http://www.w3.org/2000/svg" viewBox="0 0 17.6 20">
    <style>
        .st0{fill-rule:evenodd;clip-rule:evenodd;fill:#234448}
    </style>
    <path class="st0" d="M16.2 20H1.4C.6 20 0 19.4 0 18.6V3.4C0 2.6.6 2 1.4 2h1.3v.7c0 1.1.9 2.1 2 2.1s2-.9 2-2.1v-.6h4.1v.7c0 1.1.9 2.1 2 2.1s2-.9 2-2.1v-.7h1.4c.7 0 1.3.6 1.3 1.4v15.2c.1.7-.5 1.3-1.3 1.3zm0-13.1H1.4v11.7h14.9V6.9zM4.7 10.3h-2v-2h2v2zm0 3.5h-2v-2.1h2v2.1zm0 3.4h-2v-2.1h2v2.1zm3.4-6.9h-2v-2h2v2zm0 3.5h-2v-2.1h2v2.1zm0 3.4h-2v-2.1h2v2.1zm3.4-6.9h-2v-2h2v2zm0 3.5h-2v-2.1h2v2.1zm0 3.4h-2v-2.1h2v2.1zm3.4-6.9h-2v-2h2v2zm0 3.5h-2v-2.1h2v2.1zm0 3.4h-2v-2.1h2v2.1zM12.8 4.1c-.7 0-1.3-.6-1.3-1.4V1.4c0-.7.6-1.4 1.3-1.4.7 0 1.3.6 1.3 1.4v1.4c0 .7-.6 1.3-1.3 1.3zm-8.1 0c-.7 0-1.3-.6-1.3-1.3V1.4C3.4.6 4 0 4.7 0 5.4 0 6 .6 6 1.4v1.4c0 .7-.6 1.3-1.3 1.3z"/>
</svg>
