<svg id="Слой_1" xmlns="http://www.w3.org/2000/svg" viewBox="0 0 15 15">
    <style>
        .st0{fill-rule:evenodd;clip-rule:evenodd;fill:#9a9999}
    </style>
    <g id="XMLID_91_">
        <g id="XMLID_51_">
            <path id="XMLID_52_" class="st0" d="M11.2 3.2c.6 0 1.1-.5 1.1-1.1v-1c0-.6-.5-1.1-1.1-1.1-.6 0-1.1.5-1.1 1.1v1.1c.1.5.6 1 1.1 1zm-7.5 0c.6 0 1.1-.5 1.1-1.1v-1C4.8.5 4.3 0 3.7 0c-.5 0-1 .5-1 1.1v1.1c0 .5.5 1 1 1zm10.2-1.6h-1.1v.5c0 .9-.7 1.6-1.6 1.6S9.6 3 9.6 2.1v-.5H5.4v.5c0 .9-.7 1.6-1.6 1.6-.9.1-1.7-.7-1.7-1.6v-.5h-1C.5 1.6 0 2.1 0 2.7V14c0 .5.5 1 1.1 1H14c.6 0 1.1-.5 1.1-1.1V2.7c-.1-.6-.6-1.1-1.2-1.1zm0 12.3H1.1V5.4H14v8.5zm-8.4-2.6l.4.4.1.1.1.1c.1.1.3.1.4 0l4-4.2c.1-.1.1-.3 0-.4l-.6-.5c-.1-.1-.3-.1-.4 0l-3.3 3.4-1.5-1.6c-.1-.1-.3-.1-.4 0l-.5.6c-.1.1-.1.3 0 .4l1.7 1.7z"/>
        </g>
    </g>
</svg>
