<svg id="Слой_1" xmlns="http://www.w3.org/2000/svg" viewBox="0 0 17.5 17.4">
    <style>
        .st0{fill-rule:evenodd;clip-rule:evenodd;fill:#4ca687}
    </style>
    <path class="st0" d="M15.8 15.6c0 .1-.1.2-.2.2H1.8c-.1 0-.2-.1-.2-.2V1.8c0-.1.1-.2.2-.2h9.5V0H1.8C.8 0 0 .8 0 1.8v13.8c0 1 .8 1.8 1.8 1.8h13.8c1 0 1.8-.8 1.8-1.8V6.3h-1.6v9.3zM5.4 6.4c-.2-.1-.4-.1-.6 0l-.9.9c-.2.2-.2.5 0 .7l2.9 2.9.6.6.2.2.1.1c.2.2.4.2.6 0l9-9c.2-.2.2-.4 0-.6l-.9-.9c-.2-.2-.4-.2-.6 0L8 9.1 5.4 6.4z"/>
</svg>
