<svg id="Слой_1" xmlns="http://www.w3.org/2000/svg" viewBox="0 0 31.8 31.8">
    <style>
        .st0{fill:#cce8ed}
    </style>
    <g id="XMLID_29_">
        <path id="XMLID_30_" class="st0" d="M15.9 0C7.1 0 0 7.1 0 15.9s7.1 15.9 15.9 15.9 15.9-7.1 15.9-15.9S24.7 0 15.9 0zm0 29.8C8.2 29.8 2 23.6 2 15.9S8.2 2 15.9 2s13.9 6.2 13.9 13.9-6.2 13.9-13.9 13.9z"/>
    </g>
    <path class="st0" d="M19.2 11.4c-.3 2.3-1.9 4.1-3.3 4.1-1.5 0-3.1-1.8-3.3-4.1-.3-2.5 1.5-4.1 3.3-4.1 1.8-.1 3.6 1.5 3.3 4.1zM23 22.8v-2.1c0-2.2-1.8-4.1-4.3-4.5-2.7 5.8-2.8 6.2-2.8 6.2s-.7-1.6-2.9-6.2c-2.4.5-4.2 2.3-4.2 4.5v2.1H23z"/>
    <path class="st0" d="M14.4 16.3l1.5 1.1 1.4-1.1z"/>
    <path class="st0" d="M17.3 22.8h-2.9l.8-5.8h1.3z"/>
</svg>
