<svg id="Слой_1" xmlns="http://www.w3.org/2000/svg" viewBox="0 0 18.8 23.9">
    <style>
        .st0{fill-rule:evenodd;clip-rule:evenodd;fill:#62bc9e}
    </style>
    <path id="XMLID_91_" class="st0" d="M18.7 10.2l-.9-.9c-.2-.2-.5-.2-.6 0l-7.9 7.9-2.7-2.7c-.2-.2-.5-.2-.6 0l-1 .9c-.2.2-.2.5 0 .6l3 3 .6.6.2.2.1.2c.2.2.5.2.6 0l9.2-9.2c.2-.1.2-.4 0-.6zm-4.2-5.7v5.4L16 8.8V3.7c0-.8-.7-1.5-1.5-1.5h-3.6v1.5h2.9c.4 0 .7.4.7.8zm0 12.7v4.5c0 .4-.3.7-.7.7H2.2c-.4 0-.7-.3-.7-.7V4.5c0-.4.3-.7.7-.7h2.9V2.2H1.4C.6 2.2 0 2.9 0 3.7v18.7c0 .8.6 1.5 1.4 1.5h13c.8 0 1.5-.7 1.5-1.5v-6.6c.1 0-1.4 1.4-1.4 1.4zM2.9 5.2v1.5h10.2V5.2c0-.4-.3-.7-.7-.7h-2.2V2.3C10.2 1.1 9.2 0 8 0S5.8 1.1 5.8 2.3v2.2H3.6c-.4 0-.7.3-.7.7zm5.1-3c.4 0 .7.3.7.7 0 .4-.3.7-.7.7-.4.1-.8-.2-.8-.6 0-.4.4-.8.8-.8z"/>
</svg>
