<svg id="Слой_1" xmlns="http://www.w3.org/2000/svg" viewBox="0 0 22.5 19.6">
    <style>
        .st0{fill:none}.st1{fill:#234448}
    </style>
    <path id="XMLID_16_" class="st0" d="M1.5 2.8l.9-1.7L22.5 1v15.8l-14.6-.5-1.1-.9L4 11.7 1.8 7.1z"/>
    <g id="XMLID_14_">
        <path id="XMLID_22_" class="st1" d="M21.7 1H4.8l1 1.7h13.3l-7.4 5.2-5.2-3.7c0 .1 0 .3-.1.4-.1.1-.2.3-.4.4l-.6.4L8 7.2l-2.5 3 .9 1.5 3-3.6 2 1.4c.1.1.3.1.5.1s.3 0 .4-.1l2-1.4 5.8 6.9h-6.7l1 1.7h7.4c.4 0 .8-.4.8-.8V1.8c-.1-.4-.5-.8-.9-.8zm-.8 12.7l-5.4-6.5 5.4-3.8v10.3z"/>
    </g>
    <path id="XMLID_23_" class="st1" d="M10.8 19.6c-.3 0-.6 0-1-.1-.5-.1-1.1-.3-1.6-.6s-1-.6-1.5-1-.9-.9-1.3-1.5c-.3-.3-.6-.7-.9-1.1-.3-.3-.5-.7-.9-1.2-.3-.5-.7-1-1-1.6-.4-.6-.7-1.1-.9-1.6-.2-.5-.4-.9-.5-1.2-.2-.3-.3-.6-.3-.8-.2-.6-.4-1-.5-1.4-.2-.5-.3-1-.3-1.4C0 5.5 0 5 0 4.4c0-.5.2-1.1.3-1.5.2-.5.5-.9.8-1.3.3-.4.7-.7 1.1-1L3 .1s.1 0 .2-.1h.2c.1 0 .1.1.2.2l2.2 3.7s0 .1.1.2v.3c0 .1-.1.1-.2.2L4 5.5c-.3.2-.6.5-.7.8-.2.4-.2.7-.2 1.1 0 .3.1.5.3.7l3.7 6.3c.3.3.5.6.9.7.2.1.5.2.8.2H9c.3 0 .5-.1.7-.3l1.7-1s.1 0 .1-.1h.2c.1 0 .1.1.2.1l2.2 3.7s0 .1.1.2v.2c0 .1-.1.1-.2.2l-.9.5c-.3.2-.6.3-.9.4-.3.1-.6.2-.9.2-.1.2-.3.2-.5.2z"/>
</svg>
