<svg id="Слой_1" xmlns="http://www.w3.org/2000/svg" viewBox="0 0 23.5 18.2">
    <style>
        .st0{fill:#ffcc0c}
    </style>
    <path class="st0" d="M23.5 4.5c0 1.2-1 2.1-2.1 2.1H21l-1.8 6.3v2.3H4.3v-2.3L2.5 6.7h-.4C1 6.7 0 5.7 0 4.5c0-1.2 1-2.1 2.1-2.1 1.2 0 2.1 1 2.1 2.1 0 .3-.1.6-.2.8 2.1.7 5.5 1.3 6.9-1.2-.9-.3-1.5-1.1-1.5-2 0-1.2 1-2.1 2.1-2.1 1.2 0 2.1 1 2.1 2.1 0 .9-.6 1.8-1.5 2 .9 1.6 2.8 3.3 7 1.4-.2-.3-.3-.6-.3-1 0-1.2 1-2.1 2.1-2.1 1.6 0 2.6 1 2.6 2.1M4.3 18.2h14.9v-2H4.3v2z"/>
</svg>
