<svg id="Слой_1" xmlns="http://www.w3.org/2000/svg" viewBox="0 0 8.8 9.5">
    <style>
        .st0{fill:#234448}
    </style>
    <g id="XMLID_50_">
        <path id="XMLID_51_" class="st0" d="M8.1 4.2c-.2 0-.3.1-.3.3v1.7c0 .2.1.3.3.3.2 0 .3-.1.3-.3V4.5c0-.2-.2-.3-.3-.3zm0 2.9c-.2 0-.3.1-.3.3v1.7c0 .2.1.3.3.3.2 0 .3-.1.3-.3V7.5c0-.2-.2-.4-.3-.4zM7.9 0h-7C.4 0 0 .4 0 .9v7.7c0 .5.4.9.9.9h5.3c.5 0 .9-.4.9-.9V4.4c0-.5.4-.9.9-.9.4 0 .8-.4.8-.9V.9c0-.5-.4-.9-.9-.9zm.3 2.5c0 .2-.1.3-.2.3-.8 0-1.5.7-1.5 1.6v4.2c0 .1-.1.3-.3.3H.9c-.1 0-.3-.1-.3-.3V.9C.6.8.7.6.9.6h7c.1 0 .3.1.3.3v1.6zM5.1 5.8l-.7-.2-.1-.1s-.1 0-.1-.1c.3-.2.5-.6.5-1.1 0-.7-.4-1.3-1-1.3s-1 .6-1 1.3c0 .5.2.9.5 1.1-.1 0-.2.1-.2.1l-.8.3c-.2.1-.3.3-.3.4v.1c0 .2.2.3.3.3h2.9c.2 0 .3-.2.3-.3v-.1c0-.1-.1-.3-.3-.4z"/>
    </g>
</svg>
