<?xml version="1.0" encoding="utf-8"?>
<!-- Generator: Adobe Illustrator 19.0.0, SVG Export Plug-In . SVG Version: 6.00 Build 0)  -->
<svg version="1.1" id="Слой_1" xmlns="http://www.w3.org/2000/svg" xmlns:xlink="http://www.w3.org/1999/xlink" x="0px" y="0px"
	 viewBox="0 0 23.2 20.9" style="enable-background:new 0 0 23.2 20.9;" xml:space="preserve">
<style type="text/css">
	.st0{fill:#234448;}
</style>
<g id="XMLID_14_">
	<path id="XMLID_16_" class="st0" d="M9.5,11.7v2.1H11c0.1-0.5,0.3-1.1,0.5-1.5v-0.5H9.5z"/>
	<path id="XMLID_40_" class="st0" d="M9.5,17.2h1.8c-0.2-0.6-0.4-1.3-0.4-2.1H9.5V17.2z"/>
	<rect id="XMLID_41_" x="9.5" y="8.3" class="st0" width="2" height="2.1"/>
	<path id="XMLID_42_" class="st0" d="M12.8,4.1c0.7,0,1.3-0.6,1.3-1.4V1.4c0-0.7-0.6-1.4-1.3-1.4c-0.7,0-1.3,0.6-1.3,1.4v1.4
		C11.5,3.5,12.1,4.1,12.8,4.1z"/>
	<path id="XMLID_43_" class="st0" d="M12,18.6H1.4V6.9h14.9v1.8c0.3-0.1,0.7-0.1,1.1-0.1c0.1,0,0.2,0,0.3,0V3.4
		c0-0.8-0.6-1.4-1.3-1.4h-1.4v0.7c0,1.1-0.9,2.1-2,2.1c-1.1,0-2-0.9-2-2.1V2.1H6.8v0.7c0,1.1-0.9,2.1-2,2.1c-1.1,0-2-0.9-2-2.1V2.1
		H1.4C0.6,2.1,0,2.7,0,3.4v15.2C0,19.4,0.6,20,1.4,20h11.9C12.8,19.6,12.3,19.1,12,18.6z"/>
	<path id="XMLID_44_" class="st0" d="M4.7,4.1C5.4,4.1,6,3.5,6,2.8V1.4C6,0.6,5.4,0,4.7,0C4,0,3.4,0.6,3.4,1.4v1.4
		C3.4,3.5,4,4.1,4.7,4.1z"/>
	<rect id="XMLID_45_" x="6.1" y="15.2" class="st0" width="2" height="2.1"/>
	<path id="XMLID_46_" class="st0" d="M14.9,8.3h-2v2.1h0c0.6-0.5,1.2-1,2-1.3V8.3z"/>
	<rect id="XMLID_47_" x="2.7" y="8.3" class="st0" width="2" height="2.1"/>
	<rect id="XMLID_48_" x="2.7" y="11.7" class="st0" width="2" height="2.1"/>
	<rect id="XMLID_49_" x="2.7" y="15.2" class="st0" width="2" height="2.1"/>
	<rect id="XMLID_50_" x="6.1" y="11.7" class="st0" width="2" height="2.1"/>
	<rect id="XMLID_51_" x="6.1" y="8.3" class="st0" width="2" height="2.1"/>
</g>
<path id="XMLID_21_" class="st0" d="M17.3,9.1c-3.2,0-5.9,2.6-5.9,5.9c0,3.2,2.6,5.9,5.9,5.9c3.2,0,5.9-2.6,5.9-5.9
	C23.2,11.8,20.5,9.1,17.3,9.1z M21,18.3h-7.4l0-0.5c0-1.2,1-2.2,2.2-2.3c-0.5-0.4-0.8-1-0.8-1.7c0-1.3,1-2.3,2.3-2.3
	c1.3,0,2.3,1,2.3,2.3c0,0.7-0.3,1.3-0.8,1.7c0.5,0.1,1.1,0.3,1.4,0.7c0.4,0.4,0.7,1,0.7,1.7L21,18.3z"/>
</svg>
