<svg id="Слой_1" xmlns="http://www.w3.org/2000/svg" viewBox="0 0 23.2 20.9">
    <style>
        .st0{fill:#234448}
    </style>
    <g id="XMLID_14_">
        <path id="XMLID_16_" class="st0" d="M9.5 11.7v2.1H11c.1-.5.3-1.1.5-1.5v-.5h-2z"/>
        <path id="XMLID_40_" class="st0" d="M9.5 17.2h1.8c-.2-.6-.4-1.3-.4-2.1H9.5v2.1z"/>
        <path id="XMLID_41_" class="st0" d="M9.5 8.3h2v2.1h-2z"/>
        <path id="XMLID_42_" class="st0" d="M12.8 4.1c.7 0 1.3-.6 1.3-1.4V1.4c0-.7-.6-1.4-1.3-1.4-.7 0-1.3.6-1.3 1.4v1.4c0 .7.6 1.3 1.3 1.3z"/>
        <path id="XMLID_43_" class="st0" d="M12 18.6H1.4V6.9h14.9v1.8c.3-.1.7-.1 1.1-.1h.3V3.4c0-.8-.6-1.4-1.3-1.4H15v.7c0 1.1-.9 2.1-2 2.1s-2-.9-2-2.1v-.6H6.8v.7c0 1.1-.9 2.1-2 2.1s-2-.9-2-2.1v-.7H1.4C.6 2.1 0 2.7 0 3.4v15.2c0 .8.6 1.4 1.4 1.4h11.9c-.5-.4-1-.9-1.3-1.4z"/>
        <path id="XMLID_44_" class="st0" d="M4.7 4.1c.7 0 1.3-.6 1.3-1.3V1.4C6 .6 5.4 0 4.7 0 4 0 3.4.6 3.4 1.4v1.4c0 .7.6 1.3 1.3 1.3z"/>
        <path id="XMLID_45_" class="st0" d="M6.1 15.2h2v2.1h-2z"/>
        <path id="XMLID_46_" class="st0" d="M14.9 8.3h-2v2.1c.6-.5 1.2-1 2-1.3v-.8z"/>
        <path id="XMLID_47_" class="st0" d="M2.7 8.3h2v2.1h-2z"/>
        <path id="XMLID_48_" class="st0" d="M2.7 11.7h2v2.1h-2z"/>
        <path id="XMLID_49_" class="st0" d="M2.7 15.2h2v2.1h-2z"/>
        <path id="XMLID_50_" class="st0" d="M6.1 11.7h2v2.1h-2z"/>
        <path id="XMLID_51_" class="st0" d="M6.1 8.3h2v2.1h-2z"/>
    </g>
    <path id="XMLID_21_" class="st0" d="M17.3 9.1c-3.2 0-5.9 2.6-5.9 5.9 0 3.2 2.6 5.9 5.9 5.9 3.2 0 5.9-2.6 5.9-5.9 0-3.2-2.7-5.9-5.9-5.9zm3.7 9.2h-7.4v-.5c0-1.2 1-2.2 2.2-2.3-.5-.4-.8-1-.8-1.7 0-1.3 1-2.3 2.3-2.3 1.3 0 2.3 1 2.3 2.3 0 .7-.3 1.3-.8 1.7.5.1 1.1.3 1.4.7.4.4.7 1 .7 1.7l.1.4z"/>
</svg>
