<svg id="Слой_1" xmlns="http://www.w3.org/2000/svg" viewBox="-572 821.6 21.2 21.2">
    <style>
        .st0{fill:none}.st1{fill:#234448}
    </style>
    <path class="st0" d="M-569.6 831.8h-.3v.4c0 4.7 3.8 8.5 8.5 8.5h.3v-.4c-.1-4.7-3.9-8.5-8.5-8.5z"/>
    <path class="st1" d="M-561.6 842.7v.1h.1c.7 0 1.4-.1 2.1-.2.2-.7.2-1.4.3-2.2-.7.1-1.3.2-2 .3-.1.7-.2 1.3-.5 2 .1 0 .1 0 0 0z"/>
    <path class="st1" d="M-569.6 829.7c-.8 0-1.5.1-2.2.2-.1.7-.2 1.5-.2 2.2v.1c0 5.8 4.7 10.5 10.4 10.5.2-.7.4-1.3.4-2h.1v-.1h-.3c-4.7 0-8.5-3.8-8.5-8.5v-.4h.3c4.7 0 8.5 3.8 8.5 8.5v.4c.7 0 1.4-.1 2.1-.3v-.1c-.1-5.7-4.8-10.4-10.6-10.5zm18.7 2.4c0-.1-1.4-.6-4.2-.3-2.9.4-4.9 2.1-4.9 2.1s.2.2.5.7c.4.4.8 1.6.8 1.6s.7-.9 1.7-1.7c1.8-1.4 3.8-1.6 3.8-1.6s-1.7.5-3 2.3c-1.4 2-2 3.8-2 3.8l.2 1.4c.1.6.4 1.5.4 1.5 4-1.5 6.8-5.3 6.8-9.8h-.1zm-17.9-3.9c1.4-2.7 4.2-4.6 7.5-4.6 3 0 5.6 1.6 7.1 3.9l-1.1.5 3.4 2.3.7-4.1-1.3.6c-1.6-3.4-4.7-5.2-8.8-5.2-4.4 0-8.2 2.8-9.8 6.7.6-.1 1.1-.1 1.7-.1h.6z"/>
</svg>
