<svg xmlns="http://www.w3.org/2000/svg" x="0px" y="0px" viewBox="-858 1232.3 21.2 21.2">
	<path fill="none" d="M-855.6,1242.5h-0.3v0.4c0,4.7,3.8,8.5,8.5,8.5h0.3v-0.4C-847.2,1246.3-851,1242.5-855.6,1242.5z"></path>
	<path fill="#234448" d="M-847.6,1253.4L-847.6,1253.4L-847.6,1253.4c0.8,0.1,1.5,0,2.2-0.1c0.2-0.7,0.2-1.4,0.3-2.2
	c-0.7,0.1-1.3,0.2-2,0.3C-847.2,1252.1-847.3,1252.7-847.6,1253.4C-847.5,1253.4-847.5,1253.4-847.6,1253.4L-847.6,1253.4z"></path>
	<path fill="#234448" d="M-855.6,1240.4c-0.8,0-1.5,0.1-2.2,0.2c-0.1,0.7-0.2,1.5-0.2,2.2v0.1c0,5.8,4.7,10.5,10.4,10.5
	c0.2-0.7,0.4-1.3,0.4-2h0.1v-0.1h-0.3c-4.7,0-8.5-3.8-8.5-8.5v-0.4h0.3c4.7,0,8.5,3.8,8.5,8.5v0.4c0.7,0,1.4-0.1,2.1-0.3v-0.1
	C-845.1,1245.2-849.8,1240.5-855.6,1240.4L-855.6,1240.4z M-836.9,1242.8c0-0.1-1.4-0.6-4.2-0.3c-2.9,0.4-4.9,2.1-4.9,2.1
	s0.2,0.2,0.5,0.7c0.4,0.4,0.8,1.6,0.8,1.6s0.7-0.9,1.7-1.7c1.8-1.4,3.8-1.6,3.8-1.6s-1.7,0.5-3,2.3c-1.4,2-2,3.8-2,3.8l0.2,1.4
	c0.1,0.6,0.4,1.5,0.4,1.5C-839.6,1251.1-836.8,1247.3-836.9,1242.8L-836.9,1242.8z M-854.8,1238.9c1.4-2.7,4.2-4.6,7.5-4.6
	c3,0,5.6,1.6,7.1,3.9l-1.1,0.5l3.4,2.3l0.7-4.1l-1.3,0.6c-1.6-3.4-4.7-5.2-8.8-5.2c-4.4,0-8.2,2.8-9.8,6.7c0.6-0.1,1.1-0.1,1.7-0.1
	L-854.8,1238.9L-854.8,1238.9z"></path>
</svg>
