<svg id="Слой_1" xmlns="http://www.w3.org/2000/svg" viewBox="0 0 40.1 32.8">
    <style>
        .st0{fill:#4fa283}
    </style>
    <path class="st0" d="M16.8 23l-3.7.1c-.5.5-1.1.9-1.7 1v8.6h8.2v-8.5h-.2c-1.1 0-2-.4-2.6-1.2zM5.4 30.8c0 .7-.2 1.4-.6 1.9h5.4v-8.4L5.3 30c0 .2.1.5.1.8zM26 16.5v-.6l-1.2-1.5c-.1 0-.3.1-.4.1l-2 4.8c.2.5.4 1 .4 1.6 0 1.4-.8 2.5-2 3.1v8.8H29V19.9c-1.7-.2-3-1.7-3-3.4zm10-7.6L33.1 14l-.6 1.1c.2.4.3.9.3 1.4 0 1.6-1.1 2.9-2.6 3.3v12.9h8.2V5.4c-.2 0-.3 0-.5-.1L36 8.9zM38.1 0c-1.1 0-2 .9-2 2 0 .4.1.8.3 1.1l-6.6 11.5h-.4c-.3 0-.5.1-.7.1l-2.8-2.8c.1-.2.1-.5.1-.7 0-1.1-.9-2-2-2s-2 .9-2 2c0 .6.2 1.1.6 1.4L19.8 19c-.1 0-.3-.1-.5-.1-.9 0-1.6.6-1.9 1.3h-5c-.3-.8-1-1.3-1.9-1.3-1.1 0-2 .9-2 2 0 .3.1.6.2.9L2.6 29c-.2-.1-.4-.1-.7-.1-1.1 0-2 .9-2 2s.9 2 2 2 2-.9 2-2c0-.4-.1-.7-.3-1.1l6-7.1c.3.1.5.2.9.2.9 0 1.6-.6 1.9-1.3h5c.3.8 1 1.3 1.9 1.3 1.1 0 2-.9 2-2 0-.5-.2-.9-.4-1.2l2.9-6.5h.2c.4 0 .7-.1 1-.3l2.7 2.7c-.2.3-.3.6-.3 1 0 1.1.9 2 2 2s2-.9 2-2c0-.5-.2-.9-.5-1.3L37.5 4h.6c1.1 0 2-.9 2-2s-.9-2-2-2z"/>
</svg>
