<svg id="Слой_1" xmlns="http://www.w3.org/2000/svg" xmlns:xlink="http://www.w3.org/1999/xlink" viewBox="0 0 18.2 10.9">
    <style>
        .st0{clip-path:url(#SVGID_2_)}.st0,.st1{fill:#999}
    </style>
    <defs>
        <path id="SVGID_1_" d="M0 0h18.2v10.9H0z"/>
    </defs>
    <clipPath id="SVGID_2_">
        <use xlink:href="#SVGID_1_" overflow="visible"/>
    </clipPath>
    <path class="st0" d="M15.5 3C11.9-.6 6-.6 2.4 3L0 5.4l2.5 2.5c1.8 1.8 4.2 2.7 6.5 2.7 2.4 0 4.7-.9 6.5-2.7L18 5.4 15.5 3zm-.4 4.4c-3.4 3.4-8.9 3.4-12.2 0l-2-2 2-2C6.2 0 11.7 0 15.1 3.4l2 2-2 2zm0 0"/>
    <path class="st1" d="M8.7 3C7.5 3 6.6 4 6.6 5.1c0 .2.1.3.3.3.2 0 .3-.1.3-.3 0-.8.7-1.5 1.5-1.5.1 0 .3-.1.3-.3 0-.2-.2-.3-.3-.3zm0 0"/>
    <path class="st1" d="M9 1.5c-2.2 0-4 1.7-4 3.9s1.8 4 4 4 3.9-1.8 3.9-3.9c0-2.3-1.7-4-3.9-4zm0 7.2c-1.8 0-3.3-1.5-3.3-3.3 0-1.8 1.5-3.3 3.3-3.3s3.3 1.5 3.3 3.3c0 1.8-1.5 3.3-3.3 3.3zm0 0"/>
</svg>
