<svg id="Слой_1" xmlns="http://www.w3.org/2000/svg" viewBox="0 0 69.6 52.7">
    <style>
        .st0{fill:#ed9824}.st1{fill:#e6e6e6}.st2{fill:#f1f1f1}.st3{fill:#fff}.st4{fill:#f9b232}.st5{fill:#f8a92e}
    </style>
    <path class="st0" d="M60.2 8.9c0-.5-.4-.9-.9-.9H30.6L22.2.2c-.2-.1-.4-.2-.6-.2H8.4c-.2 0-.5.1-.6.3l-7.5 8c-.2.2-.3.4-.3.7l1.9 42.8c0 .5.4.9.9.9h58.3c.3 0 .5-.1.7-.3.2-.2.3-.4.3-.7L60.2 8.9z"/>
    <path class="st1" d="M57.6 15.5L3 17.3c-.5 0-.9.5-.9 1l1.1 32.1c0 .5.5.9 1 .9l54.6-1.8c.5 0 .9-.4.9-1l-1.1-32.1c0-.5-.5-.9-1-.9z"/>
    <path class="st2" d="M60.2 12.1l-54.7-.9c-.5 0-.9.4-1 .9l-.4 32.2c0 .5.4.9.9 1l54.7.8c.5 0 .9-.4 1-.9l.4-32.2c0-.5-.4-.9-.9-.9z"/>
    <path class="st3" d="M63 13.9L8.8 7.4c-.5-.1-1 .3-1 .8L3.9 40.1c-.1.5.3 1 .8 1L59 47.7c.5.1 1-.3 1-.8L63.9 15c0-.5-.4-1-.9-1.1z"/>
    <path class="st4" d="M69.3 5c-.2-.2-.4-.3-.7-.3h-29c-.2 0-.5.1-.6.3l-8.4 7.8H10.3c-.4 0-.8.3-.9.8l-7.5 38c-.1.3 0 .6.2.8.2.2.4.3.7.3h58.3c.5 0 .9-.3.9-.8l7.5-46.2c.1-.2 0-.5-.2-.7z"/>
    <path class="st5" d="M2.1 52.3c.2.2.4.3.7.3h58.3c.5 0 .9-.3.9-.8l2.2-13.4L1.9 51.6c-.1.2 0 .5.2.7z"/>
</svg>
