<svg id="Слой_1" xmlns="http://www.w3.org/2000/svg" viewBox="0 0 23.3 21.3">
    <style>
        .st0{fill:#234448}.st1{fill:none}
    </style>
    <path class="st0" d="M5.9 16.4c-.2.2-.4.6-.4.9V21h2.2v-5.9c0-.3-.2-.4-.4-.2l-1.4 1.5zm9.5-3.5c-.2.2-.4.6-.4.9V21h2.2v-9.4c0-.3-.2-.4-.4-.2l-1.4 1.5zm3.1-3.1c-.2.2-.4.6-.4.9V21h2V8.6c0-.3-.2-.4-.4-.2l-1.2 1.4zM12.3 16l-.2.2c-.1.1-.2.4-.2.7V21H14v-6.2c0-.3-.2-.4-.4-.2L12.3 16zm-3.2-1.1c-.2-.2-.4-.1-.4.2v6h2.2v-3.8c0-.3-.2-.7-.3-.9l-.4-.4-1.1-1.1zm-5.9 4.3l-.7.7c-.2.2-.4.6-.4.8v.3h2.4v-2.7c0-.3-.2-.4-.4-.2l-.9 1.1zm0 0"/>
    <path class="st0" d="M22.8 8.5c.2.2.4.1.4-.2V1c0-.5-.5-1-1-1h-7.4c-.3 0-.4.2-.2.4L17.2 3l-1 1-5 5-2.6-2.6c-.2-.2-.5-.2-.7 0L.6 13.7c-.8.8-.8 2.1 0 2.9v.1c.8.8 2.1.8 2.9 0L8.2 12l2.6 2.6c.2.2.5.2.7 0L20.2 6l2.6 2.5zm0 0"/>
    <path class="st1" d="M0 0h23.3v21.3H0z"/>
</svg>
