<svg xmlns="http://www.w3.org/2000/svg" x="0px" y="0px" viewBox="-285 410.6 23.2 21.1">
	<path fill="#234448" d="M-279.1,427c-0.2,0.2-0.4,0.6-0.4,0.9v3.7h2.2v-5.9c0-0.3-0.2-0.4-0.4-0.2C-277.7,425.5-279.1,427-279.1,427
	z M-269.6,423.5c-0.2,0.2-0.4,0.6-0.4,0.9v7.2h2.2v-9.4c0-0.3-0.2-0.4-0.4-0.2C-268.2,422-269.6,423.5-269.6,423.5z M-266.5,420.4
	c-0.2,0.2-0.4,0.6-0.4,0.9v10.3h2v-12.4c0-0.3-0.2-0.4-0.4-0.2C-265.3,419-266.5,420.4-266.5,420.4z M-272.7,426.6l-0.2,0.2
	c-0.1,0.1-0.2,0.4-0.2,0.7v4.1h2.1v-6.2c0-0.3-0.2-0.4-0.4-0.2L-272.7,426.6z M-275.9,425.5c-0.2-0.2-0.4-0.1-0.4,0.2v6h2.2v-3.8
	c0-0.3-0.2-0.7-0.3-0.9l-0.4-0.4L-275.9,425.5z M-281.8,429.8l-0.7,0.7c-0.2,0.2-0.4,0.6-0.4,0.8v0.3h2.4v-2.7
	c0-0.3-0.2-0.4-0.4-0.2C-280.9,428.7-281.8,429.8-281.8,429.8z"></path>
	<path fill="#234448" d="M-262.2,419.1c0.2,0.2,0.4,0.1,0.4-0.2v-7.3c0-0.5-0.5-1-1-1h-7.4c-0.3,0-0.4,0.2-0.2,0.4l2.6,2.6l-1,1l-5,5
	l-2.6-2.6c-0.2-0.2-0.5-0.2-0.7,0l-7.3,7.3c-0.8,0.8-0.8,2.1,0,2.9v0.1c0.8,0.8,2.1,0.8,2.9,0l4.7-4.7l2.6,2.6
	c0.2,0.2,0.5,0.2,0.7,0l8.7-8.6C-264.8,416.6-262.2,419.1-262.2,419.1z"></path>
</svg>
