<svg id="Слой_1" xmlns="http://www.w3.org/2000/svg" viewBox="0 0 13.1 17">
    <style>
        .st0{fill:#234448}
    </style>
    <g id="XMLID_30_">
        <path id="XMLID_32_" class="st0" d="M13.1 15.2c-2 1.2-4.2 1.8-6.4 1.8-2.4 0-4.7-.7-6.7-2h.1c0-3.4 1.5-6.5 3.6-8 .5.6 1.2 1.1 2 1.3-.2.2 2 .2 1.8 0 .8-.2 1.5-.6 2-1.2 2.1 1.7 3.6 4.8 3.6 8.1z"/>
        <path id="XMLID_31_" class="st0" d="M6.6 0c2.2 0 3.9 1.8 3.9 3.9 0 1.3-.6 2.4-1.6 3.1-.7.5-1.5.8-2.3.8-1 0-1.9-.4-2.6-1-.9-.7-1.3-1.7-1.3-2.9C2.7 1.8 4.4 0 6.6 0z"/>
    </g>
</svg>
