<svg xmlns="http://www.w3.org/2000/svg" x="0px" y="0px" viewBox="-285 410.9 25 20">
	<path fill="#234448" d="M-261.8,413.8h-1.7V411l-3.7-0.1v2.9H-278l0.1-2.9l-3.5,0.1v2.9l-1.8-0.1
		c-1,0-1.8,0.8-1.8,1.9V429c0,1,0.8,1.9,1.8,1.9h21.4c1,0,1.8-0.9,1.8-1.9v-13.3C-260,414.6-260.8,413.8-261.8,413.8z M-266.3,411.9
		h1.8v3.8h-1.8V411.9z M-277.9,418.3c1.1,0,2,1.2,2,2.7s-0.9,2.7-2,2.7s-2-1.2-2-2.7C-279.8,419.6-278.9,418.3-277.9,418.3z
		 M-280.5,411.9h1.8v3.8h-1.8V411.9z M-281.7,427c0,0,0.2-1.8,0.7-2.2c0.5-0.3,1.9-0.6,1.9-0.6s0.9,1,1.3,1c0.4,0,1.3-1,1.3-1
		s1.4,0.2,1.9,0.6c0.6,0.4,0.7,2.2,0.7,2.2H-281.7z M-263.6,426.1h-8v-1h8V426.1z M-263.6,424.2h-8v-1h8V424.2z M-263.6,422.3h-8v-1
		h8V422.3z M-263.6,420.4h-8v-1h8V420.4z"></path>
</svg>
