<svg id="Слой_1" xmlns="http://www.w3.org/2000/svg" viewBox="0 0 25 20">
    <style>
        .st0{fill-rule:evenodd;clip-rule:evenodd;fill:#234448}
    </style>
    <g id="XMLID_68_">
        <path id="XMLID_69_" class="st0" d="M23.2 2.9h-1.7V.1L17.8 0v2.9H7L7.1 0 3.6.1V3l-1.8-.1c-1 0-1.8.8-1.8 1.9v13.3c0 1 .8 1.9 1.8 1.9h21.4c1 0 1.8-.9 1.8-1.9V4.8c0-1.1-.8-1.9-1.8-1.9zM18.7 1h1.8v3.8h-1.8V1zM7.1 7.4c1.1 0 2 1.2 2 2.7 0 1.5-.9 2.7-2 2.7s-2-1.2-2-2.7c.1-1.4 1-2.7 2-2.7zM4.5 1h1.8v3.8H4.5V1zM3.3 16.1s.2-1.8.7-2.2c.5-.3 1.9-.6 1.9-.6s.9 1 1.3 1 1.3-1 1.3-1 1.4.2 1.9.6c.6.4.7 2.2.7 2.2H3.3zm18.1-.9h-8v-1h8v1zm0-1.9h-8v-1h8v1zm0-1.9h-8v-1h8v1zm0-1.9h-8v-1h8v1z"/>
    </g>
</svg>
