<svg version="1.1" xmlns="http://www.w3.org/2000/svg" viewBox="0 0 17.7 17.7">
	<path fill="#00838F" d="M15.6,0H2.1C0.9,0,0,0.9,0,2.1v13.5c0,1.2,0.9,2.1,2.1,2.1h13.5c1.2,0,2.1-0.9,2.1-2.1V2.1
		C17.7,0.9,16.7,0,15.6,0 M13.3,2.2h1.7c0.3,0,0.6,0.2,0.6,0.6v1.7c0,0.3-0.2,0.6-0.6,0.6h-1.7c-0.3,0-0.6-0.2-0.6-0.6V2.8
		C12.7,2.5,12.9,2.2,13.3,2.2 M8.9,5.5c1.9,0,3.4,1.5,3.4,3.4c0,1.9-1.5,3.4-3.4,3.4c-1.9,0-3.4-1.5-3.4-3.4C5.5,7,7,5.5,8.9,5.5
		 M15.5,16H2.2c-0.3,0-0.6-0.2-0.6-0.6V7.2h2.2C3.6,7.6,3.5,8.4,3.5,8.9c0,3,2.4,5.4,5.4,5.4c3,0,5.4-2.4,5.4-5.4
		c0-0.5-0.1-1.3-0.4-1.7H16v8.3C16,15.8,15.8,16,15.5,16"/>
</svg>
