<svg id="Слой_1" xmlns="http://www.w3.org/2000/svg" viewBox="0 0 16.4 24">
    <style>
        .st0{fill-rule:evenodd;clip-rule:evenodd;fill:#f4981a}
    </style>
    <path class="st0" d="M8.2 0C3.7 0 0 3.7 0 8.2c0 2 2.5 6.3 2.5 6.3L8.2 24l5.4-9.6s2.8-4.3 2.8-6.3c0-4.4-3.6-8.1-8.2-8.1zm4.1 13.5l-4.1 7.3-4.4-7.3C2.9 12 1.6 9.1 1.6 8.1c0-3.6 3-6.6 6.6-6.6 3.7 0 6.6 2.9 6.6 6.6 0 1-1.3 3.6-2.5 5.4zM8.2 4.6C6 4.6 4.3 6.3 4.3 8.5c0 2.1 1.8 3.9 3.9 3.9 2.2 0 3.9-1.7 3.9-3.9s-1.7-3.9-3.9-3.9z"/>
</svg>
