<svg id="Слой_1" xmlns="http://www.w3.org/2000/svg" viewBox="0 0 14.6 22.2">
    <style>
        .st0{fill:#fff}
    </style>
    <path class="st0" d="M13.1 9.9H3.5V5.5c0-2.1 1.7-3.8 3.8-3.8 2.1 0 3.8 1.7 3.8 3.8v1.8c0 .5.4.9.9.9s.9-.4.9-.9V5.5c0-3.1-2.5-5.5-5.5-5.5-3.2 0-5.6 2.5-5.6 5.5v4.4h-.3c-.8 0-1.5.7-1.5 1.5v9.3c0 .8.7 1.5 1.5 1.5h11.7c.8 0 1.5-.7 1.5-1.5v-9.3c-.1-.8-.8-1.5-1.6-1.5zm-7.6 5c0-1 .8-1.8 1.8-1.8s1.8.8 1.8 1.8c0 .6-.4 1.2-.9 1.5V19H6.4v-2.6c-.5-.3-.9-.9-.9-1.5zm0 0"/>
</svg>
