<?xml version="1.0" encoding="utf-8"?>
<!-- Generator: Adobe Illustrator 19.0.0, SVG Export Plug-In . SVG Version: 6.00 Build 0)  -->
<svg version="1.1" id="Слой_1" xmlns="http://www.w3.org/2000/svg" xmlns:xlink="http://www.w3.org/1999/xlink" x="0px" y="0px"
	 viewBox="0 0 14.6 22.2" enable-background="new 0 0 14.6 22.2" xml:space="preserve">
<g>
	<path fill="#234448" d="M13.1,9.9H3.5V5.5c0-2.1,1.7-3.8,3.8-3.8s3.8,1.7,3.8,3.8v1.8c0,0.5,0.4,0.9,0.9,0.9c0.5,0,0.9-0.4,0.9-0.9
		V5.5c0-3.1-2.5-5.5-5.5-5.5C4.2,0,1.8,2.5,1.8,5.5v4.4H1.5C0.7,9.9,0,10.6,0,11.4v9.3c0,0.8,0.7,1.5,1.5,1.5h11.7
		c0.8,0,1.5-0.7,1.5-1.5v-9.3C14.6,10.6,13.9,9.9,13.1,9.9L13.1,9.9z M5.5,14.9c0-1,0.8-1.8,1.8-1.8S9,13.9,9,14.9
		c0,0.6-0.4,1.2-0.9,1.5V19H6.4v-2.6C5.9,16.1,5.5,15.5,5.5,14.9L5.5,14.9z M5.5,14.9"/>
</g>
</svg>
