<svg xmlns="http://www.w3.org/2000/svg" viewBox="0 0 152.6 93.5">
    <path d="M133.7 60.6c3.7-8.2-23.7-13.4-24.3-20.6-.6-8 13.5-6.5 9.9-14.4 15 10.1 6.7 12.2 3.5 14.5-7.7 5.3 20.8 8.6 10.9 20.5" fill="#b51f47"/>
    <path d="M129.7 88.1c0 1.8-2.4 1.8-3.6 1.8-2.4 0-5.4-1.8-5.8-4.3h-2.7v-.1h-4.9c-.4 2.5-2.8 4.1-4.3 4.1-3.6 0-4.2-2.9-4.2-5.8h14v-1.1c3.4 3.3 11.5 2.6 11.5 5.4m-25.4-8.7c0-2.1 1.1-3.6 3.2-3.6 2 0 3.2 1.5 3.2 3.6v1.1h-6.4v-1.1zm-21.3-3h-4.1v-7.8H82c3.9 0 5.7.7 5.7 3.8 0 3.3-1.6 4-4.7 4m-72 3.7l3-9h.1l3 9H11zm138.2 3.1v3.3c0 1.9-.4 3.1-2 3.1-1 0-1.4-.7-1.4-1.6V76.4h5.2V73h-5.2v-7.8h-4.2c-.3 3.4-1.4 7.7-5.5 7.8v-.1h-2.9l-.5 1.3c-1.9-1.1-4.3-1.8-6.6-1.8-3.8 0-8.4 1.3-9.3 5.2-1.7-3.2-4.9-5.2-9.3-5.2-6 0-10.7 3.9-10.7 10.4 0 1.1.1 2.1.3 3.1v.6c0 1.3-.3 2.6-1.4 2.6-1.2 0-1.4-.6-1.4-1.4v-4.4c0-3.4-1.8-4.4-5-5.3v-.1c3.7-.5 6.4-2.3 6.4-6.3 0-4.5-3.5-6.8-9.4-6.8H66.7v3.7h2.6c1.1 0 1.7.6 1.7 1.7v17c0 1-.6 1.7-1.7 1.7h-2.1c-1.2 0-1.5-.6-1.5-1.8v-8.5c0-3.9-2.1-6.1-6.4-6.1-2.8 0-5.2 1.4-6.7 3.7-1-2.5-3.1-3.7-5.8-3.7-3.1 0-5.4 1.4-6.9 4h-.1V73H30v3.3h1.7c1.2 0 1.5.6 1.5 1.8V87c0 1.2-.3 1.8-1.5 1.8h-1.8c-1.4 0-2-.6-2.8-3.1L20 64.8h-8.5l-7.1 21c-.8 2.6-1.4 3.1-2.9 3.1H0v3.7h12.4v-3.7h-1.2c-1.1 0-2.6-.1-2.6-.8 0-.6.2-1.2.6-2.7l.5-1.7h8.6l.9 3c.2.6.2 1.1.2 1.5 0 .5-1.1.6-2.3.6h-1.3v3.7h26.5v-3.7h-.7c-1.2 0-1.5-.4-1.5-1v-8c0-2 .8-3.8 3-3.8 2.4 0 2.7 1.5 2.7 3.6v7.3c0 1.3-.3 1.8-1.5 1.8h-.6v3.7h11.2v-3.7h-.6c-1.3 0-1.5-.2-1.5-1v-8.6c0-1.8.7-3.1 3-3.1 2 0 2.7 2.1 2.7 3.6v7.3c0 1.2-.3 1.8-1.5 1.8h-.6v3.7h26.8v-3.7h-2.6c-1.1 0-1.7-.6-1.7-1.7v-7.2h3.5c3.4 0 3.9.6 3.9 3.1v3.4c0 4.9 2.7 6.9 6.7 6.9 3.5 0 5.3-1.3 6.2-3.2 1.8 1.9 4.5 3 8.3 3 3.8 0 7.8-1.8 9.4-5.2v4.8h3.2l.6-1.4c2.2 1.5 4.8 1.9 7.5 1.9 4.4 0 9.1-1.8 9.1-6.8 0-8.2-13.1-5.4-13.1-9 0-1.4 2.3-1.6 3.3-1.6 1.2 0 2.4.3 3.3.8 1 .6 1.7 1.4 2.2 2.6h3.2v-2.8h2.7v10.5c0 4.3 2.4 6.3 6.8 6.3 5.1 0 7.1-2.3 7.1-6.3v-3.7h-3.6z"/>
    <path d="M93.8 0c15.3 32.5-8.2 30.7 5.1 59.5C93.5 29 131.2 25.9 93.8 0" fill="#f39223"/>
</svg>
