<svg id="Слой_1" xmlns="http://www.w3.org/2000/svg" viewBox="0 0 22.4 22.2">
    <style>
        .st0{fill:#62bc9e}
    </style>
    <path class="st0" d="M22.4 19.3L16 12.8c.7-1.3 1.1-2.8 1.1-4.2 0-2.2-.8-4.4-2.5-6a8.2 8.2 0 0 0-6-2.6C6.4 0 4.2.8 2.5 2.5.8 4.2 0 6.4 0 8.6c0 2.2.8 4.4 2.5 6 1.7 1.7 3.9 2.5 6.1 2.5 1.6 0 3.1-.4 4.5-1.3l6.4 6.4 2.9-2.9zM8.6 13.8c-1.4 0-2.7-.5-3.7-1.5S3.4 9.9 3.4 8.6c0-1.4.5-2.7 1.5-3.7s2.4-1.5 3.7-1.5c1.3 0 2.7.5 3.7 1.5s1.5 2.4 1.5 3.7c0 1.4-.5 2.7-1.5 3.7-1.1 1-2.4 1.5-3.7 1.5z"/>
</svg>
