<svg xmlns="http://www.w3.org/2000/svg" x="0px" y="0px" viewBox="-575.8 829.3 10.2 13.6">
	<path fill="#1D9099" d="M-565.6,841.1c-0.1-0.1-0.2-0.1-0.3-0.2l-2.5-1.3c-0.2-0.1-0.4-0.3-0.4-0.6v-0.9c0.1-0.1,0.1-0.2,0.2-0.2
	c0.3-0.5,0.6-1,0.8-1.6c0.4-0.2,0.6-0.6,0.6-1v-1.1c0-0.3-0.1-0.5-0.3-0.7v-1.4c0-0.2,0.1-1-0.6-1.8c-0.6-0.6-1.5-1-2.7-1
	s-2.1,0.3-2.7,1c-0.5,0.7-0.4,1.6-0.4,1.8v1.4c-0.2,0.2-0.3,0.4-0.3,0.7v1.1c0,0.3,0.1,0.6,0.4,0.9c0.2,1,0.8,1.7,0.9,1.9v0.9
	c0,0.2-0.1,0.5-0.4,0.6l-2.4,1.3h-0.1c1.4,1.2,3.2,2,5.2,2C-568.7,842.9-566.9,842.2-565.6,841.1
	C-567.6,840.8-567.7,841.1-565.6,841.1L-565.6,841.1z"/>
</svg>
