<svg id="Слой_1" xmlns="http://www.w3.org/2000/svg" viewBox="-283.8 415 10.3 13.6">
    <style>
        .st0{fill:#1d9099}
    </style>
    <path class="st0" d="M-273.6 426.8c-.1-.1-.2-.1-.3-.2l-2.5-1.3c-.2-.1-.4-.3-.4-.6v-.9c.1-.1.1-.2.2-.2.3-.5.6-1 .8-1.6.4-.2.6-.6.6-1v-1.1c0-.3-.1-.5-.3-.7v-1.4c0-.2.1-1-.6-1.8-.6-.6-1.5-1-2.7-1s-2.1.3-2.7 1c-.5.7-.4 1.6-.4 1.8v1.4c-.2.2-.3.4-.3.7v1.1c0 .3.1.6.4.9.2 1 .8 1.7.9 1.9v.9c0 .2-.1.5-.4.6l-2.4 1.3h-.1c1.4 1.2 3.2 2 5.2 2 1.9 0 3.7-.7 5-1.8-2-.3-2.1 0 0 0z"/>
</svg>
