<?xml version="1.0" encoding="utf-8"?>
<!-- Generator: Adobe Illustrator 19.0.0, SVG Export Plug-In . SVG Version: 6.00 Build 0)  -->
<svg version="1.1" id="Слой_1" xmlns="http://www.w3.org/2000/svg" xmlns:xlink="http://www.w3.org/1999/xlink" x="0px" y="0px"
	 viewBox="-283.8 415 10.3 13.6" style="enable-background:new -283.8 415 10.3 13.6;" xml:space="preserve">
<style type="text/css">
	.st0{fill:#1D9099;}
</style>
<path class="st0" d="M-273.6,426.8c-0.1-0.1-0.2-0.1-0.3-0.2l-2.5-1.3c-0.2-0.1-0.4-0.3-0.4-0.6v-0.9c0.1-0.1,0.1-0.2,0.2-0.2
	c0.3-0.5,0.6-1,0.8-1.6c0.4-0.2,0.6-0.6,0.6-1v-1.1c0-0.3-0.1-0.5-0.3-0.7v-1.4c0-0.2,0.1-1-0.6-1.8c-0.6-0.6-1.5-1-2.7-1
	s-2.1,0.3-2.7,1c-0.5,0.7-0.4,1.6-0.4,1.8v1.4c-0.2,0.2-0.3,0.4-0.3,0.7v1.1c0,0.3,0.1,0.6,0.4,0.9c0.2,1,0.8,1.7,0.9,1.9v0.9
	c0,0.2-0.1,0.5-0.4,0.6l-2.4,1.3c0,0-0.1,0-0.1,0c1.4,1.2,3.2,2,5.2,2C-276.7,428.6-274.9,427.9-273.6,426.8
	C-275.6,426.5-275.7,426.8-273.6,426.8z"/>
</svg>
