<svg id="Слой_1" xmlns="http://www.w3.org/2000/svg" viewBox="0 0 31.8 31.8">
    <style>
        .st0{fill:#cce8ed}
    </style>
    <g id="XMLID_29_">
        <path id="XMLID_30_" class="st0" d="M15.9 0C7.1 0 0 7.1 0 15.9s7.1 15.9 15.9 15.9 15.9-7.1 15.9-15.9S24.7 0 15.9 0zm0 29.8C8.2 29.8 2 23.6 2 15.9S8.2 2 15.9 2s13.9 6.2 13.9 13.9-6.2 13.9-13.9 13.9z"/>
    </g>
    <path class="st0" d="M12 11.1v-.6c0-2.6 1.9-4.2 4-4.3 2 0 4 1.6 4 4.2v.7l-.7-.1.6.1c-.3 2.5-2 4.6-4 4.7-2 0-3.6-2.2-3.9-4.7zm6.7-.1v-.5c0-1.9-1.3-2.9-2.7-2.9-1.4 0-2.7 1.1-2.7 3v.5c.2 2.1 1.7 3.6 2.7 3.6.9-.1 2.4-1.7 2.7-3.7z"/>
    <path class="st0" d="M8.9 23.2c-.2 0-.3-.1-.5-.2-.1-.1-.2-.3-.2-.5v-2.1c0-2.6 2.1-4.7 4.8-5.2.2 0 .4 0 .5.1.8.6 1.6.9 2.5.9.8 0 1.6-.3 2.4-.9.1-.1.3-.2.5-.1 2.7.5 4.8 2.6 4.8 5.2v2.1c0 .2-.1.3-.2.5-.1.1-.3.2-.5.2H8.9zm14.2-.7v-.6.6zM9.5 20.4v1.5h12.9v-1.5c0-1.8-1.4-3.4-3.5-3.9-.9.6-1.9 1-3 1s-2.1-.4-3-1c-2 .6-3.4 2.1-3.4 3.9z"/>
    <path class="st0" d="M17.7 18.8h3.1v1.6h-3.1z"/>
</svg>
