<svg id="Слой_1" xmlns="http://www.w3.org/2000/svg" viewBox="0 0 15.4 20">
    <style>
        .st0{fill:#234448}
    </style>
    <g id="XMLID_56_">
        <path id="XMLID_57_" class="st0" d="M10.7 3.5l2-3.5h-10l2.1 3.5h5.9zm-3 4.7c-3.3 0-5.9 2.6-5.9 5.9 0 3.2 2.7 5.9 5.9 5.9s5.9-2.6 5.9-5.9c0-3.2-2.6-5.9-5.9-5.9zm0 10.9c-2.8 0-5-2.2-5-5 0-2.7 2.3-5 5-5s5 2.2 5 5-2.2 5-5 5zm4-9.6l3.6-5.9L12.9.1l-4.6 8c2.1.2 3.4 1.4 3.4 1.4zM7 8L2.4.1 0 3.6l3.5 6S4.8 8.3 7 8zm-.1 4.8c-.3.2-.5.4-.8.4v.8c.4-.1.8-.4 1.2-.7v3.4h.9V12h-.8c-.1.3-.2.6-.5.8z"/>
    </g>
</svg>
