<svg xmlns="http://www.w3.org/2000/svg" x="0px" y="0px" viewBox="-289 410.9 15.3 20">
	<path fill="#234448" d="M-278.3,414.4l2-3.5h-10l2.1,3.5H-278.3z M-281.3,419.1c-3.3,0-5.9,2.6-5.9,5.9
		c0,3.2,2.7,5.9,5.9,5.9c3.2,0,5.9-2.6,5.9-5.9C-275.4,421.8-278,419.1-281.3,419.1z M-281.3,430c-2.8,0-5-2.2-5-5c0-2.7,2.3-5,5-5
		c2.7,0,5,2.2,5,5C-276.3,427.8-278.5,430-281.3,430z M-277.3,420.4l3.6-5.9l-2.4-3.5l-4.6,8C-278.6,419.2-277.3,420.4-277.3,420.4z
		 M-282,418.9l-4.6-7.9l-2.4,3.5l3.5,6C-285.5,420.5-284.2,419.2-282,418.9z M-282.1,423.7c-0.3,0.2-0.5,0.4-0.8,0.4v0.8
		c0.4-0.1,0.8-0.4,1.2-0.7v3.4h0.9v-4.7h-0.8C-281.7,423.2-281.8,423.5-282.1,423.7z"></path>
</svg>