<svg id="Слой_1" xmlns="http://www.w3.org/2000/svg" viewBox="0 0 7.9 10.8">
    <style>
        .st0{fill:#234448}
    </style>
    <path class="st0" d="M7.2 0H.7C.3 0 0 .3 0 .7v2.2c0 .2.1.4.3.6l2.1 1.4C1.4 5.4.7 6.5.7 7.7c0 1.7 1.4 3.2 3.2 3.2 1.7 0 3.2-1.4 3.2-3.2 0-1.2-.7-2.2-1.7-2.8l2.1-1.4c.2-.1.3-.3.3-.6V.7c.1-.4-.2-.7-.6-.7zm-.8 7.6c0 1.4-1.1 2.5-2.5 2.5S1.4 9 1.4 7.6s1.1-2.5 2.5-2.5 2.5 1.1 2.5 2.5zm.8-4.8l-1.3.9V2.4c0-.1-.1-.2-.2-.2s-.2.1-.2.2V4l-.8.5c-.3 0-.5-.1-.8-.1-.3 0-.5 0-.7.1L2.4 4V2.4c0-.1-.1-.2-.2-.2-.2 0-.3.1-.3.2v1.3L.7 2.8V.7H2v.6c0 .1.1.2.2.2s.2-.1.2-.2V.7h3.1v.6c0 .1.1.2.2.2s.2-.1.2-.2V.7h1.3v2.1z"/>
    <path class="st0" d="M3.5 5.8l-.3.8-.9.1c-.1 0-.3.2-.3.3-.1.2 0 .4.1.5l.6.6-.2.8c0 .2 0 .3.2.4.1.1.2.1.3.1.1 0 .1 0 .2-.1l.7-.3.7.4c.1 0 .1.1.2.1s.2 0 .3-.1c.1-.1.2-.3.2-.4l-.1-.9.6-.6c.1-.1.1-.3.1-.5-.1-.1-.2-.3-.4-.3l-.8-.1-.4-.8c0-.1-.2-.2-.4-.2-.1 0-.3.1-.4.2zM4.4 7l1.1.2-.8.7.2 1.1-1-.5L3 9l.2-1.1-.8-.7L3.5 7 4 6l.4 1z"/>
</svg>
