<?xml version="1.0" encoding="utf-8"?>
<!-- Generator: Adobe Illustrator 19.0.0, SVG Export Plug-In . SVG Version: 6.00 Build 0)  -->
<svg version="1.1" id="Слой_1" xmlns="http://www.w3.org/2000/svg" xmlns:xlink="http://www.w3.org/1999/xlink" x="0px" y="0px"
	 viewBox="-293 416.1 7.9 10.8" enable-background="new -293 416.1 7.9 10.8" xml:space="preserve">
<path fill="#234448" d="M-285.8,416.1h-6.5c-0.4,0-0.7,0.3-0.7,0.7v2.2c0,0.2,0.1,0.4,0.3,0.6l2.1,1.4c-1,0.5-1.7,1.6-1.7,2.8
	c0,1.7,1.4,3.2,3.2,3.2c1.7,0,3.2-1.4,3.2-3.2c0-1.2-0.7-2.2-1.7-2.8l2.1-1.4c0.2-0.1,0.3-0.3,0.3-0.6v-2.2
	C-285.1,416.4-285.4,416.1-285.8,416.1z M-286.6,423.7c0,1.4-1.1,2.5-2.5,2.5s-2.5-1.1-2.5-2.5c0-1.4,1.1-2.5,2.5-2.5
	S-286.6,422.3-286.6,423.7z M-285.8,418.9l-1.3,0.9v-1.3c0-0.1-0.1-0.2-0.2-0.2c-0.1,0-0.2,0.1-0.2,0.2v1.6l-0.8,0.5
	c-0.3,0-0.5-0.1-0.8-0.1c-0.3,0-0.5,0-0.7,0.1l-0.8-0.5v-1.6c0-0.1-0.1-0.2-0.2-0.2c-0.2,0-0.3,0.1-0.3,0.2v1.3l-1.2-0.9v-2.1h1.3
	v0.6c0,0.1,0.1,0.2,0.2,0.2c0.1,0,0.2-0.1,0.2-0.2v-0.6h3.1v0.6c0,0.1,0.1,0.2,0.2,0.2c0.1,0,0.2-0.1,0.2-0.2v-0.6h1.3
	C-285.8,416.8-285.8,418.9-285.8,418.9z"/>
<path fill="#234448" d="M-289.5,421.9l-0.3,0.8l-0.9,0.1c-0.1,0-0.3,0.2-0.3,0.3c-0.1,0.2,0,0.4,0.1,0.5l0.6,0.6l-0.2,0.8
	c0,0.2,0,0.3,0.2,0.4c0.1,0.1,0.2,0.1,0.3,0.1s0.1,0,0.2-0.1l0.7-0.3l0.7,0.4c0.1,0,0.1,0.1,0.2,0.1c0.1,0,0.2,0,0.3-0.1
	s0.2-0.3,0.2-0.4l-0.1-0.9l0.6-0.6c0.1-0.1,0.1-0.3,0.1-0.5c-0.1-0.1-0.2-0.3-0.4-0.3l-0.8-0.1l-0.4-0.8c0-0.1-0.2-0.2-0.4-0.2
	C-289.2,421.7-289.4,421.8-289.5,421.9z M-288.6,423.1l1.1,0.2l-0.8,0.7l0.2,1.1l-1-0.5l-0.9,0.5l0.2-1.1l-0.8-0.7l1.1-0.2l0.5-1
	L-288.6,423.1z"/>
</svg>
