<svg id="Слой_1" xmlns="http://www.w3.org/2000/svg" viewBox="0 0 10.1 10.1">
    <style>
        .st0{fill:#234448}
    </style>
    <g id="XMLID_44_">
        <path id="XMLID_45_" class="st0" d="M8.7 0H3.4c-.7 0-1.3.6-1.3 1.3v7.5c0 .3-.4.6-.7.6-.4 0-.7-.2-.7-.6V4.1c0-.2-.2-.3-.3-.3-.2-.1-.4.1-.4.3v4.7c0 .7.6 1.3 1.3 1.3.7 0 1.4-.6 1.4-1.3V1.3c.1-.3.3-.6.7-.6h5.4c.3 0 .7.3.7.6v7.5c0 .3-.4.6-.7.6H3.6c-.2 0-.3.2-.3.3 0 .2.2.3.3.3h5.1c.7 0 1.4-.6 1.4-1.3V1.3C10.1.6 9.5 0 8.7 0zM4 2.8h4.2c.2 0 .3-.2.3-.3 0-.2-.2-.3-.3-.3H4c-.2 0-.3.2-.3.3-.1.1.1.3.3.3zm0 1.6h4.2c.2 0 .3-.2.3-.3 0-.2-.2-.3-.3-.3H4c-.2-.1-.4 0-.4.2s.2.4.4.4zM4 6h4.2c.2 0 .3-.2.3-.3 0-.2-.2-.3-.3-.3H4c-.2 0-.3.2-.3.3-.1.1.1.3.3.3zm0 1.6h4.2c.2 0 .3-.2.3-.3 0-.2-.2-.3-.3-.3H4c-.2 0-.3.2-.3.3-.1.1.1.3.3.3z"/>
    </g>
</svg>
