<?xml version="1.0" encoding="utf-8"?>
<!-- Generator: Adobe Illustrator 19.0.0, SVG Export Plug-In . SVG Version: 6.00 Build 0)  -->
<svg version="1.1" id="Слой_1" xmlns="http://www.w3.org/2000/svg" xmlns:xlink="http://www.w3.org/1999/xlink" x="0px" y="0px"
	 viewBox="-292 415.8 10.1 10.1" enable-background="new -292 415.8 10.1 10.1" xml:space="preserve">
<g id="XMLID_44_">
	<path id="XMLID_45_" fill="#234448" d="M-283.3,415.8h-5.3c-0.7,0-1.3,0.6-1.3,1.3v7.5c0,0.3-0.4,0.6-0.7,0.6
		c-0.4,0-0.7-0.2-0.7-0.6v-4.7c0-0.2-0.2-0.3-0.3-0.3c-0.2-0.1-0.4,0.1-0.4,0.3v4.7c0,0.7,0.6,1.3,1.3,1.3c0.7,0,1.4-0.6,1.4-1.3
		v-7.5c0.1-0.3,0.3-0.6,0.7-0.6h5.4c0.3,0,0.7,0.3,0.7,0.6v7.5c0,0.3-0.4,0.6-0.7,0.6h-5.2c-0.2,0-0.3,0.2-0.3,0.3
		c0,0.2,0.2,0.3,0.3,0.3h5.1c0.7,0,1.4-0.6,1.4-1.3v-7.4C-281.9,416.4-282.5,415.8-283.3,415.8z M-288,418.6h4.2
		c0.2,0,0.3-0.2,0.3-0.3c0-0.2-0.2-0.3-0.3-0.3h-4.2c-0.2,0-0.3,0.2-0.3,0.3C-288.4,418.4-288.2,418.6-288,418.6z M-288,420.2h4.2
		c0.2,0,0.3-0.2,0.3-0.3c0-0.2-0.2-0.3-0.3-0.3h-4.2c-0.2-0.1-0.4,0-0.4,0.2S-288.2,420.2-288,420.2z M-288,421.8h4.2
		c0.2,0,0.3-0.2,0.3-0.3c0-0.2-0.2-0.3-0.3-0.3h-4.2c-0.2,0-0.3,0.2-0.3,0.3C-288.4,421.6-288.2,421.8-288,421.8z M-288,423.4h4.2
		c0.2,0,0.3-0.2,0.3-0.3c0-0.2-0.2-0.3-0.3-0.3h-4.2c-0.2,0-0.3,0.2-0.3,0.3C-288.4,423.2-288.2,423.4-288,423.4z"/>
</g>
</svg>
