<svg version="1.1" xmlns="http://www.w3.org/2000/svg" viewBox="0 0 18.2 18.2">
	<path fill-rule="evenodd" clip-rule="evenodd" fill="#234448" d="M10.9,3.8c-0.5-0.5-1.3-0.5-1.7,0L8.8,4.3l-6.1,6.1l0,0l-0.2,0.2
		c0,0-0.6,0.6-2,5c0,0,0,0.1,0,0.1c0,0.1,0,0.2-0.1,0.2c0,0.1,0,0.1-0.1,0.2c0,0.1,0,0.1-0.1,0.2c0,0.1-0.1,0.3-0.1,0.4
		c-0.1,0.3-0.3,1.1-0.1,1.4c0.3,0.3,1,0,1.4-0.1c0.2,0,0.3-0.1,0.4-0.1c0.1,0,0.1,0,0.2-0.1c0.1,0,0.1,0,0.2-0.1
		c0.1,0,0.2-0.1,0.3-0.1c0,0,0,0,0.1,0c4.2-1.3,5-1.9,5-2c0,0,0,0,0,0c0,0,0,0,0,0l0.2-0.2l0,0L14,9.5L14.4,9c0.5-0.5,0.5-1.3,0-1.7
		L10.9,3.8z M7,14.9C7,14.9,7,14.9,7,14.9C7,14.9,7,14.9,7,14.9C7,14.9,7,14.9,7,14.9C7,14.9,6.9,15,7,14.9c-0.3,0.2-0.9,0.5-2.3,1
		C4.5,16,4.4,16,4.2,16.1l-2-2c0.1-0.2,0.1-0.4,0.2-0.5c0.5-1.4,0.8-2,0.9-2.2c0,0,0,0,0,0c0,0,0,0,0,0c0,0,0,0,0,0c0,0,0,0,0,0
		l0.1-0.1l3.7,3.7L7,14.9z M17.9,3.8l-3.5-3.5c-0.5-0.5-1.3-0.5-1.7,0l-0.9,0.9c-0.5,0.5-0.5,1.3,0,1.7l3.5,3.5
		c0.5,0.5,1.3,0.5,1.7,0l0.9-0.9C18.3,5.1,18.3,4.3,17.9,3.8L17.9,3.8z M17.9,3.8"/>
</svg>
