<svg id="Слой_1" xmlns="http://www.w3.org/2000/svg" viewBox="0 0 18.2 18.2">
    <style>
        .st0{fill-rule:evenodd;clip-rule:evenodd;fill:#234448}
    </style>
    <path class="st0" d="M10.9 3.8c-.5-.5-1.3-.5-1.7 0l-.4.5-6.1 6.1-.2.2s-.6.6-2 5v.1c0 .1 0 .2-.1.2 0 .1 0 .1-.1.2 0 .1 0 .1-.1.2 0 .1-.1.3-.1.4-.1.3-.3 1.1-.1 1.4.3.3 1 0 1.4-.1.2 0 .3-.1.4-.1.1 0 .1 0 .2-.1.1 0 .1 0 .2-.1.1 0 .2-.1.3-.1h.1c4.2-1.3 5-1.9 5-2l.2-.2L14 9.5l.4-.5c.5-.5.5-1.3 0-1.7l-3.5-3.5zM7 14.9s-.1.1 0 0c-.3.2-.9.5-2.3 1-.2.1-.3.1-.5.2l-2-2c.1-.2.1-.4.2-.5.5-1.4.8-2 .9-2.2l.1-.1L7.1 15l-.1-.1zM17.9 3.8L14.4.3c-.5-.5-1.3-.5-1.7 0l-.9.9c-.5.5-.5 1.3 0 1.7l3.5 3.5c.5.5 1.3.5 1.7 0l.9-.9c.4-.4.4-1.2 0-1.7zm0 0"/>
</svg>
