<?xml version="1.0" encoding="utf-8"?>
<!-- Generator: Adobe Illustrator 19.0.0, SVG Export Plug-In . SVG Version: 6.00 Build 0)  -->
<svg version="1.1" id="Слой_1" xmlns="http://www.w3.org/2000/svg" xmlns:xlink="http://www.w3.org/1999/xlink" x="0px" y="0px"
	 viewBox="0 0 21.1 21" enable-background="new 0 0 21.1 21" xml:space="preserve">
<g>
	<path fill="#234448" d="M19.9,12.2c-0.7-0.7-1.7-1.2-2.7-1.3c0.9-0.8,1.4-1.9,1.4-3.2c0-2.4-1.9-4.3-4.3-4.3c-2.3,0-4.1,1.8-4.3,4
		c2,0.9,3.4,2.9,3.4,5.2c0,0.9-0.2,1.7-0.6,2.4c0.5,0.3,1,0.6,1.4,1c1.1,1.1,1.7,2.6,1.7,4.1v0l0,0l0,0.7h5.1l0-5.7
		C21.1,14.1,20.7,13,19.9,12.2L19.9,12.2z M19.9,12.2"/>
	<path fill="#234448" d="M10.7,15.8c0.9-0.8,1.4-1.9,1.4-3.2c0-2.4-1.9-4.3-4.3-4.3c-2.4,0-4.3,1.9-4.3,4.3c0,1.3,0.6,2.4,1.4,3.2
		c-2.2,0.2-4,2-4,4.3l0,0.9h13.7l0-0.8c0-1.2-0.4-2.3-1.3-3.1C12.6,16.4,11.7,15.9,10.7,15.8L10.7,15.8z M10.7,15.8"/>
	<path fill="#234448" d="M2.8,5.2v1.6c0,0.7,0.5,1.2,1.2,1.2c0.7,0,1.2-0.5,1.2-1.2V5.2h1.6c0.7,0,1.2-0.5,1.2-1.2
		c0-0.7-0.5-1.2-1.2-1.2H5.2V1.2C5.2,0.5,4.6,0,4,0C3.3,0,2.8,0.5,2.8,1.2v1.6H1.2C0.5,2.8,0,3.3,0,4c0,0.7,0.5,1.2,1.2,1.2H2.8z
		 M2.8,5.2"/>
</g>
</svg>
