<svg id="Слой_1" xmlns="http://www.w3.org/2000/svg" viewBox="0 0 23.8 23.8">
    <style>
        .st0{fill:#999}
    </style>
    <path class="st0" d="M11.9 0C5.3 0 0 5.3 0 11.9c0 6.6 5.3 11.9 11.9 11.9 6.6 0 11.9-5.3 11.9-11.9C23.8 5.3 18.5 0 11.9 0zm0 22.4c-5.8 0-10.5-4.7-10.5-10.5S6.1 1.4 11.9 1.4s10.5 4.7 10.5 10.5-4.7 10.5-10.5 10.5zm3.5-11.5c-.6 1.4-1.9 2.6-3.2 2.6-1.6 0-2.7-1.2-3.3-2.6-3.6 1.8-3.1 6.5-3.1 6.5 0 .6.5.7 1.1.7h10.7c.6 0 1.1-.1 1.1-.7-.1.1.3-4.6-3.3-6.5zm2.1 6.3H6.7c0-.7 0-3.3 1.8-4.8.9 1.3 2.2 2.1 3.7 2.1 1.3 0 2.7-.8 3.6-2.1 1.7 1.5 1.8 4 1.7 4.8.1 0 .1 0 0 0zm-5.3-4.4c1.8 0 3.2-2.5 3.2-4.7 0-2.1-1.4-3.8-3.2-3.8C10.4 4.3 9 6 9 8.1c-.1 2.1 1.4 4.7 3.2 4.7zm0-7.5c1.2 0 2.2 1.3 2.2 2.8 0 1.7-1.1 3.6-2.2 3.6-1 0-2.2-1.9-2.2-3.6 0-1.5.9-2.8 2.2-2.8z"/>
</svg>
