<svg id="Слой_1" xmlns="http://www.w3.org/2000/svg" viewBox="0 0 21 22.7">
    <style>
        .st0{fill:#fff}
    </style>
    <path class="st0" d="M15.8 10.9c-1 2.3-3.2 4.2-5.3 4.2-2.6 0-4.4-1.9-5.4-4.2C-.7 13.9 0 21.5 0 21.5c0 1 .8 1.2 1.8 1.2h17.4c1 0 1.8-.2 1.8-1.2 0 0 .6-7.6-5.2-10.6zM19.2 21H1.6c0-1.2 0-5.3 2.9-7.8 1.5 2.2 3.6 3.4 6 3.4 2.1 0 4.4-1.4 5.8-3.5 2.9 2.4 3 6.6 3 7.8 0 .1 0 .1-.1.1zm-8.7-7.2c2.9 0 5.2-4.2 5.2-7.6 0-3.4-2.4-6.2-5.3-6.2-2.8 0-5.2 2.8-5.2 6.2 0 3.4 2.4 7.6 5.3 7.6zm0-12.1c2 0 3.6 2 3.6 4.6 0 2.8-1.9 5.9-3.6 5.9-1.7 0-3.7-3.2-3.7-5.9.1-2.6 1.7-4.6 3.7-4.6z"/>
</svg>
