<svg id="Слой_1" xmlns="http://www.w3.org/2000/svg" xmlns:xlink="http://www.w3.org/1999/xlink" viewBox="0 0 22.4 22.4">
    <style>
        .st0{clip-path:url(#SVGID_2_)}.st0,.st1{fill:#fff}
    </style>
    <defs>
        <path id="SVGID_1_" d="M0 0h22.4v22.4H0z"/>
    </defs>
    <clipPath id="SVGID_2_">
        <use xlink:href="#SVGID_1_" overflow="visible"/>
    </clipPath>
    <path class="st0" d="M20 17.5c-.4-.4-.9-.5-1.3-.5l-1.3-1.3c.5-.7 1-1.4 1.3-2.2.5-1.2.8-2.5.8-3.8 0-1.3-.3-2.6-.8-3.8-.5-1.2-1.2-2.2-2.1-3.1-.9-.9-1.9-1.6-3.1-2.1C12.3.3 11 0 9.7 0 8.4 0 7.1.3 5.9.8c-1.1.5-2.2 1.2-3.1 2-.8.9-1.5 2-2 3.1C.3 7.1 0 8.4 0 9.7c0 1.3.3 2.6.8 3.8.5 1.2 1.2 2.2 2.1 3.1.9.9 1.9 1.6 3.1 2.1 1.2.5 2.5.8 3.8.8 1.3 0 2.6-.3 3.8-.8.8-.3 1.5-.8 2.2-1.3l1.3 1.3c0 .5.1 1 .5 1.3l1.8 1.8c.3.3.8.5 1.2.5.5 0 .9-.2 1.2-.5.7-.7.7-1.8 0-2.5L20 17.5zM15.7 14c-.2.3-.5.6-.8.9-.3.3-.6.5-.9.8-1.3.9-2.8 1.4-4.3 1.4-2 0-3.8-.8-5.2-2.2-1.4-1.4-2.2-3.3-2.2-5.2 0-2 .8-3.8 2.2-5.2 1.4-1.4 3.3-2.2 5.2-2.2 2 0 3.8.8 5.2 2.2 1.4 1.4 2.2 3.3 2.2 5.2 0 1.6-.5 3.1-1.4 4.3zm0 0"/>
    <path class="st1" d="M9.3 6.7h1.2c.4 0 .7.3.7.7h1c-.1-1-.8-1.7-1.8-1.7H9.3c-.9 0-1.7.8-1.8 1.7h1c.2-.4.5-.7.8-.7zm2.5 1.2h-5c-.2 0-.5.2-.7.4-.1.1-.1.1-.1.2.1.6.4 1.1 1.1 1.6.6.4 1.3.6 2.1.7h.7c.5 0 .9-.1 1.3-.2.6-.1 1.1-.3 1.5-.6.7-.4 1-1 1.1-1.6 0-.1 0-.2-.1-.3-.1-.1-.4-.4-.7-.4h-1.2zm0 0"/>
    <path class="st1" d="M13.1 10.6c-.4.3-.8.5-1.3.6-.6.2-1.2.3-1.9.3h-.1c-1.2 0-2.2-.3-3.1-.9-.3-.2-.6-.5-.9-.8-.1-.1-.1-.1-.1 0v2.3c0 .6.4 1 1 1H13c.2 0 .3 0 .5-.1.3-.2.5-.5.5-.9V9.9c0-.1 0-.1-.1 0-.1.2-.4.5-.8.7zm0 0"/>
</svg>
