<svg id="Слой_1" xmlns="http://www.w3.org/2000/svg" viewBox="0 0 19 22">
    <style>
        .st0{fill-rule:evenodd;clip-rule:evenodd;fill:#00838f}
    </style>
    <path class="st0" d="M17.7 10.3C17.6 8 16.7 5.7 15 4c-1.7-1.7-4-2.6-6.3-2.7L8.6 0c2.6.2 5.2 1.2 7.2 3.2s3.1 4.6 3.2 7.2l-1.3-.1zm-1.7.2l-1.3-.2c0-1.6-.6-3.2-1.8-4.4-1.2-1.2-2.7-1.8-4.3-1.8L8.5 3c1.9 0 3.8.8 5.3 2.2 1.5 1.5 2.2 3.4 2.2 5.3zm-3 0l-1.1-.3c.1-.8-.3-1.5-.9-2.2-.6-.6-1.3-.8-2.1-.8L8.5 6c1.2-.1 2.4.3 3.3 1.2.8.9 1.2 2.1 1.2 3.3zm-2.4-.7c0 .8-.7 1.5-1.5 1.5-.3 0-.5-.1-.8-.2l-.6.6 4.6 4.5c-.1.1-.2.3-.4.4-2.6 2.6-6.8 2.6-9.3 0C0 14 0 9.9 2.6 7.3c.1-.1.3-.2.4-.3l4.3 4.3.6-.6c-.2-.2-.3-.5-.3-.9 0-.8.7-1.5 1.5-1.5.9 0 1.5.7 1.5 1.5zM5 18.6c-.1 0 1.5 3.4 1.5 3.4H0l2.2-5.3s.7 1 2.8 1.9z"/>
</svg>
