<svg id="Слой_1" xmlns="http://www.w3.org/2000/svg" viewBox="0 0 31.8 31.8">
    <style>
        .st0{fill:#cce8ed}
    </style>
    <g id="XMLID_29_">
        <path id="XMLID_30_" class="st0" d="M15.9 0C7.1 0 0 7.1 0 15.9s7.1 15.9 15.9 15.9 15.9-7.1 15.9-15.9S24.7 0 15.9 0zm0 29.8C8.2 29.8 2 23.6 2 15.9S8.2 2 15.9 2s13.9 6.2 13.9 13.9-6.2 13.9-13.9 13.9z"/>
    </g>
    <path class="st0" d="M6.6 22.2h7.1v-5.9h4.5v5.9h7.1V14H6.6v8.2zm13.2-6h3.6v3.6h-3.6v-3.6zm-11.4 0H12v3.6H8.4v-3.6zm13.8-7.7H9.7v2.4h12.5V8.5zM5.9 12.1v1h20v-1h-20z"/>
</svg>
