<svg id="Слой_1" xmlns="http://www.w3.org/2000/svg" viewBox="0 0 18.2 23.8">
    <style>
        .st0{fill-rule:evenodd;clip-rule:evenodd;fill:#62bc9e}
    </style>
    <path class="st0" d="M17.7 22c.3 0 .5.2.5.4v1.3H0v-1.3c0-.2.2-.4.5-.4h1.6c.1-5.9 4.2-7.8 4.2-10.1C6.3 9.5 2.1 9.4 2 1.8H.5c-.3 0-.5-.2-.5-.5V0h18.2v1.3c0 .2-.2.4-.5.4h-1.5c0 7.6-4.3 7.8-4.3 10.1 0 2.4 4.2 4.3 4.2 10.1h1.6zm-7.1-10.1c0-2.4 4.2-2.5 4.3-10.1H3.4c0 7.6 4.3 7.8 4.3 10.1S3.5 16.1 3.5 22h.7c.2-.5.7-1.2 1.7-1.6l1.3-.6c.8-.4 1.3-.6 1.4-.8.2-.1.3-.4.5-.9.2.5.4.8.5.9.2.1.6.4 1.4.8l1.3.6c1 .5 1.5 1.1 1.7 1.6h.9c-.1-5.8-4.3-7.8-4.3-10.1zm-.9-1.3c-.1.2-.2.6-.3 1.2 0 .2-.1.4-.1.8-.1-.4-.1-.6-.1-.8-.1-.6-.2-1-.3-1.2-.1-.2-.4-.6-1-1.1L6.6 8.3c-.8-.8-1.3-1.4-1.5-1.8 1.4.8 2.8 1.2 4.2 1.2 1.4 0 2.7-.4 4.2-1.2-.2.4-.8.9-1.6 1.7l-1.2 1.2c-.6.6-.9 1-1 1.2z"/>
</svg>
