<svg id="Слой_1" xmlns="http://www.w3.org/2000/svg" viewBox="0 0 18.8 18.7">
    <style>
        .st0{fill:#fff}
    </style>
    <path class="st0" d="M17.7 10.9c-.6-.6-1.5-1-2.4-1.1.8-.8 1.3-1.8 1.3-2.9 0-2.1-1.7-3.8-3.8-3.8-2 0-3.7 1.6-3.8 3.5 1.8.8 3 2.6 3 4.6 0 .8-.2 1.5-.5 2.2.5.2.9.6 1.3.9 1 1 1.5 2.3 1.5 3.6v.6h4.6v-5.1c-.1-.8-.5-1.8-1.2-2.5zm0 0"/>
    <path class="st0" d="M9.5 14.1c.8-.7 1.3-1.7 1.3-2.8 0-2.1-1.7-3.8-3.8-3.8-2.1 0-3.8 1.7-3.8 3.8 0 1.1.5 2.1 1.3 2.8-2 .2-3.6 1.8-3.6 3.8v.8H13V18c0-1-.4-2-1.1-2.8-.6-.6-1.5-1-2.4-1.1zm-7-9.5V6c0 .6.5 1.1 1.1 1.1.6 0 1.1-.5 1.1-1.1V4.6H6c.6 0 1.1-.5 1.1-1.1 0-.6-.5-1.1-1.1-1.1H4.6V1.1C4.6.5 4.1 0 3.5 0c-.6 0-1 .5-1 1.1v1.4H1.1c-.6 0-1.1.4-1.1 1s.5 1.1 1.1 1.1h1.4zm0 0"/>
</svg>
