<?xml version="1.0" encoding="utf-8"?>
<!-- Generator: Adobe Illustrator 19.0.0, SVG Export Plug-In . SVG Version: 6.00 Build 0)  -->
<svg version="1.1" id="Слой_1" xmlns="http://www.w3.org/2000/svg" xmlns:xlink="http://www.w3.org/1999/xlink" x="0px" y="0px"
	 viewBox="-292 415.8 10.1 10.1" enable-background="new -292 415.8 10.1 10.1" xml:space="preserve">
<path fill="#234448" d="M-282.1,419.3l-2.8,2.1l1,3.5c1.2-0.9,2-2.4,2-4.1C-281.9,420.3-282,419.8-282.1,419.3z M-289.8,425
	c0.8,0.6,1.8,0.9,2.9,0.9s2.2-0.4,3-1l-3-2.1L-289.8,425z M-291.8,419.4c-0.1,0.4-0.2,0.9-0.2,1.5c0,1.7,0.8,3.2,2.1,4.1l0.9-3.5
	C-289,421.5-291.8,419.4-291.8,419.4z M-287,415.8c-2.2,0-4.1,1.5-4.8,3.6l3.5-0.1L-287,415.8z M-282.1,419.3
	c-0.7-2.1-2.6-3.5-4.8-3.5l1.3,3.4L-282.1,419.3z"/>
</svg>
