<svg id="Слой_1" xmlns="http://www.w3.org/2000/svg" viewBox="0 0 20.2 23.9">
    <style>
        .st0{fill:#999}
    </style>
    <path class="st0" d="M10.1 3.7C4.5 3.7 0 8.2 0 13.8s4.5 10.1 10.1 10.1 10.1-4.5 10.1-10.1S15.7 3.7 10.1 3.7zm0 19c-4.9 0-8.9-4-8.9-8.9s4-8.9 8.9-8.9 8.9 4 8.9 8.9-4 8.9-8.9 8.9z"/>
    <path class="st0" d="M16.7 13.3c.3 0 .4-.3.3-.4-.4-3.3-3.1-5.8-6.5-6-.2 0-.5 0-.5.3v5.7s0 .4.4.4h6.3zm-8.8-12h3.8v2.9H7.9z"/>
    <path class="st0" d="M13 1.6c0 .7-1.4.8-3.2.8s-3.2 0-3.2-.7S8 0 9.8 0 13 .9 13 1.6z"/>
    <path transform="rotate(41.976 17.358 6.071)" class="st0" d="M15.9 5.3h2.9v1.6h-2.9z"/>
    <path class="st0" d="M19.4 6.8c-.3.3-1-.2-1.9-1-.8-.8-1.5-1.4-1.2-1.7.3-.3 1.4-.2 2.3.5.8.8 1.1 1.9.8 2.2z"/>
</svg>
