<?xml version="1.0" encoding="utf-8"?>
<!-- Generator: Adobe Illustrator 19.0.0, SVG Export Plug-In . SVG Version: 6.00 Build 0)  -->
<svg version="1.1" id="Слой_1" xmlns="http://www.w3.org/2000/svg" xmlns:xlink="http://www.w3.org/1999/xlink" x="0px" y="0px"
	 viewBox="0 0 13.2 8" enable-background="new 0 0 13.2 8" xml:space="preserve">
<g>
	<path id="XMLID_1_" fill="#010202" d="M12.4,5.8c0-0.2-1.1-0.4-1.1-0.4V2.3c0,0,0.9,0,0.9-0.1c0,0,0.4-0.1,0.4-0.1L6.4,0
		c0,0,0.1,0.1,0.1,0.1h0c0,0-0.1-0.1-0.1-0.1L0.1,2.2c0,0-0.1,0-0.1,0.1c0,0,0,0.1,0.1,0.1l6.3,2.4c0.1,0-0.5,0-0.4,0l5.2-2.3v2.9
		c0,0.1,0.4,0.2,0.4,0.4c0,0.2,0.4,0.4,0.6,0.5c-0.2,0.4-0.1,1.1-0.1,1.3c0,0.3,0.3,0.5,0.6,0.5c0.3,0,0.5-0.2,0.5-0.5
		c0-0.2-0.5-0.9-0.7-1.3C12.6,6.2,12.4,6,12.4,5.8z"/>
	<path fill="#010202" d="M11,3.5L6.6,5.2c-0.1,0-0.6,0-0.7,0L1.2,3.5c0,0.7,0,1.5,0,1.7c0,1.3,2.4,2.4,4.9,2.5
		c2.5-0.1,4.7-1.1,4.7-2.5C10.7,5.1,11,4.2,11,3.5z"/>
</g>
</svg>
