<svg xmlns="http://www.w3.org/2000/svg" x="0px" y="0px" viewBox="-297.7 406.9 19.7 22.8">
	<path fill="#244448" d="M-278,427.9c-0.2-4.1-3.9-5.8-3.9-5.8c-0.9-0.4-2.5-1.2-3.5-1.7c1.3-1.5,1.7-3.8,1.8-4.2
	c0.3-1.5,0.1-3.7,0.1-3.7c-0.3-3.7-4-4-4.4-4c-0.3-0.1-4.1,0.2-4.4,3.9c0,0-0.1,2,0.1,3.6c0,0.1,0.1,0.4,0.2,0.8
	c0.7,0.9,1.8,1.4,2.7,1.7c0.1-0.1,0.3-0.1,0.4-0.1h1.7c0.3,0,0.6,0.2,0.6,0.5c0,0.3-0.3,0.5-0.6,0.5h-1.6c-0.3,0-0.5-0.1-0.6-0.3
	c-0.7-0.2-1.4-0.4-2.1-0.9c0.3,0.7,0.7,1.5,1.2,2.1c-1,0.5-2.6,1.3-3.5,1.8c0,0-3.7,1.7-3.9,5.8c0,0-0.1,0.7,1.2,0.9
	c0,0,3.9,0.9,8.7,0.9c4.7,0,8.7-0.9,8.7-0.9C-277.9,428.6-278,427.9-278,427.9z"></path>
	<path fill="#244448" d="M-293.5,417.4h0.3v-5.2c0-1.2,0.4-2.2,1.2-2.9c1.5-1.5,4.2-1.5,4.2-1.5s2.8,0,4.3,1.5
	c0.7,0.7,1.3,1.7,1.3,2.9v5.2c1,0,2-0.7,2-1.7v-1.6c0-0.8-1-1.4-1-1.7v-0.2c0-1.5-0.7-2.7-1.6-3.6c-1.8-1.8-4.8-1.7-4.9-1.7
	s-3.1,0-5,1.7c-0.9,0.9-1.5,2.1-1.5,3.6v0.2c-1,0.2-1,0.9-1,1.7v1.7c0,1,0.4,1.7,1.3,1.7h0.4V417.4z"></path>
</svg>
