<svg id="Слой_1" xmlns="http://www.w3.org/2000/svg" xmlns:xlink="http://www.w3.org/1999/xlink" viewBox="0 0 23 27">
    <style>
        .st0{clip-path:url(#XMLID_50_);fill:#244448}
    </style>
    <g id="XMLID_16_">
        <g id="XMLID_17_">
            <defs>
                <path id="XMLID_18_" d="M0 0h23v27H0z"/>
            </defs>
            <clipPath id="XMLID_50_">
                <use xlink:href="#XMLID_18_" overflow="visible"/>
            </clipPath>
            <path id="XMLID_23_" class="st0" d="M21.2 23.5c-.2-4.1-3.9-5.8-3.9-5.8-.9-.4-2.5-1.2-3.5-1.7 1.3-1.5 1.7-3.8 1.8-4.2.3-1.5.1-3.7.1-3.7-.3-3.7-4-4-4.4-4C11 4 7.2 4.3 6.9 8c0 0-.1 2 .1 3.6 0 .1.1.4.2.8.7.9 1.8 1.4 2.7 1.7.1-.1.3-.1.4-.1H12c.3 0 .6.2.6.5s-.3.5-.6.5h-1.6c-.3 0-.5-.1-.6-.3-.7-.2-1.4-.4-2.1-.9.3.7.7 1.5 1.2 2.1-1 .5-2.6 1.3-3.5 1.8 0 0-3.7 1.7-3.9 5.8 0 0-.1.7 1.2.9 0 0 3.9.9 8.7.9 4.7 0 8.7-.9 8.7-.9 1.2-.2 1.1-.9 1.1-.9zm0 0"/>
            <path id="XMLID_20_" class="st0" d="M5.7 13H6V7.8c0-1.2.4-2.2 1.2-2.9 1.5-1.5 4.2-1.5 4.2-1.5s2.8 0 4.3 1.5c.7.7 1.3 1.7 1.3 2.9V13c1 0 2-.7 2-1.7V9.7c0-.8-1-1.4-1-1.7v-.2c0-1.5-.7-2.7-1.6-3.6-1.8-1.8-4.8-1.7-4.9-1.7-.1 0-3.1 0-5 1.7C5.6 5.1 5 6.3 5 7.8V8c-1 .2-1 .9-1 1.7v1.7c0 1 .4 1.7 1.3 1.7h.4zm0 .1"/>
        </g>
    </g>
</svg>
