<svg id="Слой_1" xmlns="http://www.w3.org/2000/svg" viewBox="0 0 16.9 16.9">
    <style>
        .st0{fill:#999}
    </style>
    <path class="st0" d="M8.4 0C3.8 0 0 3.8 0 8.4c0 4.7 3.8 8.4 8.4 8.4 4.7 0 8.4-3.8 8.4-8.4.1-4.6-3.7-8.4-8.4-8.4zm0 15.9C4.3 15.9 1 12.6 1 8.4 1 4.3 4.3 1 8.4 1c4.1 0 7.5 3.3 7.5 7.5 0 4.1-3.3 7.4-7.5 7.4z"/>
    <path class="st0" d="M11.1 8.1C11 6.7 10 5.6 8.6 5.5V4.1H8v1.4c-1.4.2-2.4 1.2-2.5 2.6H4.4v.7h1.2c.2 1.1 1.1 2 2.4 2.2v1.8h.7V11c1.3-.1 2.3-1.1 2.5-2.3h1.4v-.6h-1.5zm-.9 0H8.6V6.4c.9.1 1.6.8 1.6 1.7zM8 6.4v1.7H6.4c.1-.9.7-1.6 1.6-1.7zM6.5 8.7H8v1.4c-.8-.1-1.4-.7-1.5-1.4zm2.1 1.4V8.7h1.6c-.2.7-.8 1.3-1.6 1.4z"/>
</svg>
