<svg version="1.1" xmlns="http://www.w3.org/2000/svg" viewBox="-286 411.3 22.5 19.6">
<path style="fill: none !important;" d="M-284.5,414.1l0.9-1.7l20.1-0.1v15.8l-14.6-0.5l-1.1-0.9l-2.8-3.7l-2.2-4.6L-284.5,414.1z"/>
<g id="XMLID_14_">
	<path id="XMLID_22_" fill="#234448" d="M-264.3,412.3h-16.9l1,1.7h13.3l-7.4,5.2l-5.2-3.7c0,0.1,0,0.3-0.1,0.4
		c-0.1,0.1-0.2,0.3-0.4,0.4l-0.6,0.4l2.6,1.8l-2.5,3l0.9,1.5l3-3.6l2,1.4c0.1,0.1,0.3,0.1,0.5,0.1c0.2,0,0.3,0,0.4-0.1l2-1.4
		l5.8,6.9h-6.7l1,1.7h7.4c0.4,0,0.8-0.4,0.8-0.8v-14.1C-263.5,412.7-263.9,412.3-264.3,412.3z M-265.1,425l-5.4-6.5l5.4-3.8V425z"/>
</g>
<path id="XMLID_23_" fill="#234448" d="M-275.2,430.9c-0.3,0-0.6,0-1-0.1c-0.5-0.1-1.1-0.3-1.6-0.6c-0.5-0.3-1-0.6-1.5-1
	s-0.9-0.9-1.3-1.5c-0.3-0.3-0.6-0.7-0.9-1.1c-0.3-0.3-0.5-0.7-0.9-1.2c-0.3-0.5-0.7-1-1-1.6c-0.4-0.6-0.7-1.1-0.9-1.6
	c-0.2-0.5-0.4-0.9-0.5-1.2c-0.2-0.3-0.3-0.6-0.3-0.8c-0.2-0.6-0.4-1-0.5-1.4c-0.2-0.5-0.3-1-0.3-1.4c-0.1-0.6-0.1-1.1-0.1-1.7
	c0-0.5,0.2-1.1,0.3-1.5c0.2-0.5,0.5-0.9,0.8-1.3c0.3-0.4,0.7-0.7,1.1-1l0.8-0.5c0,0,0.1,0,0.2-0.1h0.2c0.1,0,0.1,0.1,0.2,0.2
	l2.2,3.7c0,0,0,0.1,0.1,0.2v0.3c0,0.1-0.1,0.1-0.2,0.2l-1.7,0.9c-0.3,0.2-0.6,0.5-0.7,0.8c-0.2,0.4-0.2,0.7-0.2,1.1
	c0,0.3,0.1,0.5,0.3,0.7l3.7,6.3c0.3,0.3,0.5,0.6,0.9,0.7c0.2,0.1,0.5,0.2,0.8,0.2h0.2c0.3,0,0.5-0.1,0.7-0.3l1.7-1
	c0,0,0.1,0,0.1-0.1h0.2c0.1,0,0.1,0.1,0.2,0.1l2.2,3.7c0,0,0,0.1,0.1,0.2v0.2c0,0.1-0.1,0.1-0.2,0.2l-0.9,0.5
	c-0.3,0.2-0.6,0.3-0.9,0.4c-0.3,0.1-0.6,0.2-0.9,0.2C-274.8,430.9-275,430.9-275.2,430.9z"/>
</svg>
