<svg version="1.1" xmlns="http://www.w3.org/2000/svg" x="0px" y="0px" viewBox="-542 794 51.8 48.9">
	<path fill="#934B97" d="M-513.1,807.1h-0.3c-0.6-0.2-0.9-0.8-0.7-1.3c0.3-1.1,0.8-4.9,1-6.3c0.1-0.6,0.6-1,1.2-1
		c0.6,0.1,1,0.6,1,1.2c-0.1,0.5-0.6,5.1-1,6.6C-512.2,806.8-512.6,807.1-513.1,807.1z"/>
	<path fill="#934B97" d="M-504.7,806.8L-504.7,806.8c-0.7-0.1-1.1-0.6-1-1.2c0,0,0.4-2.8,0.2-5.3c0-0.6,0.4-1.1,1-1.2
		c0.6,0,1.1,0.4,1.2,1c0.2,2.7-0.2,5.6-0.2,5.7C-503.7,806.4-504.1,806.8-504.7,806.8z"/>
	<path fill="#934B97" d="M-504.5,801.4c-0.6,0-1.1-0.5-1.1-1c-0.1-1.2-0.2-2.8-1.2-3.6c-0.5-0.4-1.2-0.6-2.2-0.5
		c-1.1,0.1-1.7,0.7-2,3.3c-0.1,0.6-0.6,1-1.2,0.9c-0.6-0.1-1-0.6-0.9-1.2c0.2-1.7,0.6-4.9,3.9-5.2c1.6-0.2,2.9,0.2,3.9,1
		c1.6,1.3,1.9,3.6,1.9,5.1C-503.4,800.9-503.8,801.4-504.5,801.4z"/>
	<path fill="#934B97" d="M-494.9,814.3h-11.3c-0.6,0-1.1-0.5-1.1-1.1c0-0.6,0.5-1.1,1.1-1.1h11.3c0.6,0,1.1,0.5,1.1,1.1
		C-493.9,813.8-494.3,814.3-494.9,814.3z"/>
	<path fill="#934B97" d="M-494.9,821.5c-0.6,0-1.1-0.5-1.1-1.1c0-0.6,0.5-1.1,1.1-1.1c1.4,0,2.5-1.1,2.5-2.5c0-1.4-1.1-2.5-2.5-2.5
		c-0.6,0-1.1-0.5-1.1-1.1c0-0.6,0.5-1.1,1.1-1.1c2.6,0,4.7,2.1,4.7,4.7C-490.2,819.4-492.4,821.5-494.9,821.5z"/>
	<path fill="#934B97" d="M-495.9,828.6c-0.6,0-1.1-0.5-1.1-1.1c0-0.6,0.5-1.1,1.1-1.1c1.4,0,2.5-1.1,2.5-2.5c0-1.1-0.7-2.1-1.8-2.4
		c-0.6-0.2-0.9-0.8-0.7-1.4c0.2-0.6,0.8-0.9,1.4-0.7c2,0.6,3.3,2.4,3.3,4.5C-491.3,826.5-493.4,828.6-495.9,828.6z"/>
	<path fill="#934B97" d="M-497,835.7c-0.6,0-1.1-0.5-1.1-1.1c0-0.6,0.5-1.1,1.1-1.1c1.4,0,2.5-1.1,2.5-2.5c0-1.1-0.7-2.1-1.8-2.4
		c-0.6-0.2-0.9-0.8-0.7-1.3c0.2-0.6,0.8-0.9,1.3-0.7c2,0.6,3.4,2.4,3.4,4.5C-492.3,833.5-494.4,835.7-497,835.7z"/>
	<path fill="#934B97" d="M-498.1,842.8c-0.6,0-1.1-0.5-1.1-1.1c0-0.6,0.5-1.1,1.1-1.1c1.4,0,2.5-1.1,2.5-2.5c0-1.1-0.7-2.1-1.8-2.4
		c-0.6-0.2-0.9-0.8-0.7-1.4c0.2-0.6,0.8-0.9,1.4-0.7c2,0.6,3.3,2.4,3.3,4.5C-493.4,840.7-495.5,842.8-498.1,842.8z"/>
	<path fill="#934B97" d="M-509,842.9c-2.7,0-5.3,0-7.1-0.1c-2.8-0.1-5-2.2-6.6-3.8c-0.5-0.5-1-1-1.4-1.3c-0.5-0.4-0.6-1-0.2-1.5
		c0.3-0.5,1-0.6,1.5-0.2c0.5,0.4,1.1,0.9,1.6,1.4c1.5,1.4,3.3,3.1,5.2,3.2c5.5,0.2,17.8,0,18,0c0.6,0,1.1,0.5,1.1,1.1
		c0,0.6-0.5,1.1-1.1,1.1C-498.1,842.8-503.7,842.9-509,842.9z"/>
	<path fill="#934B97" d="M-506.2,814.3c-0.2,0-0.4-0.1-0.6-0.2c-0.5-0.3-0.7-1-0.3-1.5c0,0,0.9-1.6,1.3-7c0.1-0.6,0.6-1,1.2-1
		c0.6,0.1,1,0.6,1,1.2c-0.5,6-1.5,7.7-1.7,8C-505.5,814.1-505.8,814.3-506.2,814.3z"/>
	<path fill="#934B97" d="M-523.7,822.2c-0.6,0-1.1-0.5-1.1-1.1c0-0.5,0.4-1,0.9-1.1c1.2-0.7,8.3-8.1,9.8-14.2
		c0.1-0.6,0.7-0.9,1.3-0.8c0.6,0.1,0.9,0.7,0.8,1.3C-513.7,813-521.7,822.2-523.7,822.2z"/>
	<path fill="#934B97" d="M-527,842.8h-10.5c-2.5,0-4.5-2.2-4.5-5v-15.2c0-2.8,2-5.1,4.5-5.1h10.5c2.5,0,4.5,2.3,4.5,5.1v15.2
		C-522.4,840.6-524.5,842.8-527,842.8z M-537.5,819.7c-1.3,0-2.4,1.3-2.4,2.9v15.2c0,1.6,1.1,2.9,2.4,2.9h10.5c1.3,0,2.4-1.3,2.4-2.9
		v-15.2c0-1.6-1.1-2.9-2.4-2.9H-537.5z"/>
</svg>
