<svg xmlns="http://www.w3.org/2000/svg" xmlns:xlink="http://www.w3.org/1999/xlink" viewBox="-271 397 52.7 48.9">
<path fill="#934B97" d="M-242.1,410.1h-0.3c-0.6-0.2-0.9-0.8-0.7-1.3c0.3-1.1,0.8-4.9,1-6.3c0.1-0.6,0.6-1,1.2-1
	c0.6,0.1,1,0.6,1,1.2c-0.1,0.5-0.6,5.1-1,6.6C-241.2,409.8-241.6,410.1-242.1,410.1z"/>
<g>
	<defs>
		<rect id="SVGID_1_" x="-271" y="397.1" width="52.7" height="48.8"/>
	</defs>
	<clipPath id="SVGID_2_">
		<use xlink:href="#SVGID_1_"  overflow="visible"/>
	</clipPath>
	<path clip-path="url(#SVGID_2_)" fill="#934B97" d="M-233.7,409.8h-0.1c-0.6-0.1-1-0.6-0.9-1.2c0,0,0.4-2.8,0.2-5.3
		c0-0.6,0.4-1.1,1-1.2c0.6,0,1.1,0.4,1.2,1c0.2,2.7-0.2,5.6-0.2,5.7C-232.7,409.4-233.1,409.8-233.7,409.8z"/>
</g>
<g>
	<defs>
		<rect id="SVGID_3_" x="-271" y="397.1" width="52.7" height="48.8"/>
	</defs>
	<clipPath id="SVGID_4_">
		<use xlink:href="#SVGID_3_"  overflow="visible"/>
	</clipPath>
	<path clip-path="url(#SVGID_4_)" fill="#934B97" d="M-233.5,404.4c-0.6,0-1.1-0.5-1.1-1c-0.1-1.2-0.2-2.8-1.2-3.6
		c-0.5-0.4-1.2-0.6-2.2-0.5c-1.1,0.1-1.7,0.7-2,3.3c-0.1,0.6-0.6,1-1.2,0.9c-0.6-0.1-1-0.6-0.9-1.2c0.2-1.7,0.6-4.9,3.9-5.2
		c1.6-0.2,2.9,0.2,3.9,1c1.6,1.3,1.9,3.6,1.9,5.1C-232.4,403.9-232.8,404.4-233.5,404.4z"/>
</g>
<path fill="#934B97" d="M-223.9,417.3h-11.3c-0.6,0-1.1-0.5-1.1-1.1s0.5-1.1,1.1-1.1h11.3c0.6,0,1.1,0.5,1.1,1.1
	C-222.9,416.8-223.3,417.3-223.9,417.3z"/>
<path fill="#934B97" d="M-223.9,424.5c-0.6,0-1.1-0.5-1.1-1.1c0-0.6,0.5-1.1,1.1-1.1c1.4,0,2.5-1.1,2.5-2.5c0-1.4-1.1-2.5-2.5-2.5
	c-0.6,0-1.1-0.5-1.1-1.1s0.5-1.1,1.1-1.1c2.6,0,4.7,2.1,4.7,4.7C-219.2,422.4-221.4,424.5-223.9,424.5z"/>
<path fill="#934B97" d="M-224.9,431.6c-0.6,0-1.1-0.5-1.1-1.1c0-0.6,0.5-1.1,1.1-1.1c1.4,0,2.5-1.1,2.5-2.5c0-1.1-0.7-2.1-1.8-2.4
	c-0.6-0.2-0.9-0.8-0.7-1.4c0.2-0.6,0.8-0.9,1.4-0.7c2,0.6,3.3,2.4,3.3,4.5C-220.3,429.5-222.4,431.6-224.9,431.6z"/>
<path fill="#934B97" d="M-226,438.7c-0.6,0-1.1-0.5-1.1-1.1s0.5-1.1,1.1-1.1c1.4,0,2.5-1.1,2.5-2.5c0-1.1-0.7-2.1-1.8-2.4
	c-0.6-0.2-0.9-0.8-0.7-1.3c0.2-0.6,0.8-0.9,1.3-0.7c2,0.6,3.4,2.4,3.4,4.5C-221.3,436.5-223.4,438.7-226,438.7z"/>
<path fill="#934B97" d="M-227.1,445.8c-0.6,0-1.1-0.5-1.1-1.1s0.5-1.1,1.1-1.1c1.4,0,2.5-1.1,2.5-2.5c0-1.1-0.7-2.1-1.8-2.4
	c-0.6-0.2-0.9-0.8-0.7-1.4c0.2-0.6,0.8-0.9,1.4-0.7c2,0.6,3.3,2.4,3.3,4.5C-222.4,443.7-224.5,445.8-227.1,445.8z"/>
<path fill="#934B97" d="M-238,445.9c-2.7,0-5.3,0-7.1-0.1c-2.8-0.1-5-2.2-6.6-3.8c-0.5-0.5-1-1-1.4-1.3c-0.5-0.4-0.6-1-0.2-1.5
	c0.3-0.5,1-0.6,1.5-0.2c0.5,0.4,1.1,0.9,1.6,1.4c1.5,1.4,3.3,3.1,5.2,3.2c5.5,0.2,17.8,0,18,0c0.6,0,1.1,0.5,1.1,1.1
	s-0.5,1.1-1.1,1.1C-227.1,445.8-232.7,445.9-238,445.9z M-235.2,417.3c-0.2,0-0.4-0.1-0.6-0.2c-0.5-0.3-0.7-1-0.3-1.5
	c0,0,0.9-1.6,1.3-7c0.1-0.6,0.6-1,1.2-1c0.6,0.1,1,0.6,1,1.2c-0.5,6-1.5,7.7-1.7,8C-234.5,417.1-234.8,417.3-235.2,417.3z
	 M-252.7,425.2c-0.6,0-1.1-0.5-1.1-1.1c0-0.5,0.4-1,0.9-1.1c1.2-0.7,8.3-8.1,9.8-14.2c0.1-0.6,0.7-0.9,1.3-0.8
	c0.6,0.1,0.9,0.7,0.8,1.3C-242.7,416-250.7,425.2-252.7,425.2z"/>
<path fill="#934B97" d="M-256,445.8h-10.5c-2.5,0-4.5-2.2-4.5-5v-15.2c0-2.8,2-5.1,4.5-5.1h10.5c2.5,0,4.5,2.3,4.5,5.1v15.2
	C-251.4,443.6-253.5,445.8-256,445.8z M-266.5,422.7c-1.3,0-2.4,1.3-2.4,2.9v15.2c0,1.6,1.1,2.9,2.4,2.9h10.5c1.3,0,2.4-1.3,2.4-2.9
	v-15.2c0-1.6-1.1-2.9-2.4-2.9H-266.5z"/>
</svg>
