<svg id="Слой_1" xmlns="http://www.w3.org/2000/svg" xmlns:xlink="http://www.w3.org/1999/xlink" viewBox="0 0 52.7 48.8">
    <style>
        .st0,.st1{fill:#934b97}.st1{clip-path:url(#SVGID_2_)}
    </style>
    <path class="st0" d="M28.9 13h-.3c-.6-.2-.9-.8-.7-1.3.3-1.1.8-4.9 1-6.3.1-.6.6-1 1.2-1 .6.1 1 .6 1 1.2-.1.5-.6 5.1-1 6.6-.3.5-.7.8-1.2.8zm0 0"/>
    <defs>
        <path id="SVGID_1_" d="M0 0h52.7v48.8H0z"/>
    </defs>
    <clipPath id="SVGID_2_">
        <use xlink:href="#SVGID_1_" overflow="visible"/>
    </clipPath>
    <path class="st1" d="M37.3 12.7h-.1c-.6-.1-1-.6-.9-1.2 0 0 .4-2.8.2-5.3 0-.6.4-1.1 1-1.2.6 0 1.1.4 1.2 1 .2 2.7-.2 5.6-.2 5.7-.2.6-.6 1-1.2 1zm0 0"/>
    <path class="st1" d="M37.5 7.3c-.6 0-1.1-.5-1.1-1-.1-1.2-.2-2.8-1.2-3.6-.5-.4-1.2-.6-2.2-.5-1.1.1-1.7.7-2 3.3-.1.6-.6 1-1.2.9-.6-.1-1-.6-.9-1.2.2-1.7.6-4.9 3.9-5.2 1.6-.2 2.9.2 3.9 1 1.6 1.3 1.9 3.6 1.9 5.1 0 .7-.4 1.2-1.1 1.2zm0 0"/>
    <path class="st0" d="M47.1 20.2H35.8c-.6 0-1.1-.5-1.1-1.1 0-.6.5-1.1 1.1-1.1h11.3c.6 0 1.1.5 1.1 1.1-.1.6-.5 1.1-1.1 1.1zm0 0"/>
    <path class="st0" d="M47.1 27.4c-.6 0-1.1-.5-1.1-1.1 0-.6.5-1.1 1.1-1.1 1.4 0 2.5-1.1 2.5-2.5s-1.1-2.5-2.5-2.5c-.6 0-1.1-.5-1.1-1.1 0-.6.5-1.1 1.1-1.1 2.6 0 4.7 2.1 4.7 4.7s-2.2 4.7-4.7 4.7zm0 0"/>
    <path class="st0" d="M46.1 34.5c-.6 0-1.1-.5-1.1-1.1 0-.6.5-1.1 1.1-1.1 1.4 0 2.5-1.1 2.5-2.5 0-1.1-.7-2.1-1.8-2.4-.6-.2-.9-.8-.7-1.4.2-.6.8-.9 1.4-.7 2 .6 3.3 2.4 3.3 4.5-.1 2.6-2.2 4.7-4.7 4.7zm0 0"/>
    <path class="st0" d="M45 41.6c-.6 0-1.1-.5-1.1-1.1 0-.6.5-1.1 1.1-1.1 1.4 0 2.5-1.1 2.5-2.5 0-1.1-.7-2.1-1.8-2.4-.6-.2-.9-.8-.7-1.3.2-.6.8-.9 1.3-.7 2 .6 3.4 2.4 3.4 4.5 0 2.4-2.1 4.6-4.7 4.6zm0 0"/>
    <path class="st0" d="M43.9 48.7c-.6 0-1.1-.5-1.1-1.1 0-.6.5-1.1 1.1-1.1 1.4 0 2.5-1.1 2.5-2.5 0-1.1-.7-2.1-1.8-2.4-.6-.2-.9-.8-.7-1.4.2-.6.8-.9 1.4-.7 2 .6 3.3 2.4 3.3 4.5 0 2.6-2.1 4.7-4.7 4.7zm0 0"/>
    <path class="st0" d="M33 48.8c-2.7 0-5.3 0-7.1-.1-2.8-.1-5-2.2-6.6-3.8-.5-.5-1-1-1.4-1.3-.5-.4-.6-1-.2-1.5.3-.5 1-.6 1.5-.2.5.4 1.1.9 1.6 1.4 1.5 1.4 3.3 3.1 5.2 3.2 5.5.2 17.8 0 18 0 .6 0 1.1.5 1.1 1.1 0 .6-.5 1.1-1.1 1.1-.1 0-5.7.1-11 .1zm2.8-28.6c-.2 0-.4-.1-.6-.2-.5-.3-.7-1-.3-1.5 0 0 .9-1.6 1.3-7 .1-.6.6-1 1.2-1 .6.1 1 .6 1 1.2-.5 6-1.5 7.7-1.7 8-.2.3-.5.5-.9.5zm-17.5 7.9c-.6 0-1.1-.5-1.1-1.1 0-.5.4-1 .9-1.1 1.2-.7 8.3-8.1 9.8-14.2.1-.6.7-.9 1.3-.8.6.1.9.7.8 1.3-1.7 6.7-9.7 15.9-11.7 15.9zm0 0"/>
    <path class="st0" d="M15 48.7H4.5c-2.5 0-4.5-2.2-4.5-5V28.5c0-2.8 2-5.1 4.5-5.1H15c2.5 0 4.5 2.3 4.5 5.1v15.2c.1 2.8-2 5-4.5 5zM4.5 25.6c-1.3 0-2.4 1.3-2.4 2.9v15.2c0 1.6 1.1 2.9 2.4 2.9H15c1.3 0 2.4-1.3 2.4-2.9V28.5c0-1.6-1.1-2.9-2.4-2.9H4.5zm0 0"/>
</svg>
