<svg id="Слой_1" xmlns="http://www.w3.org/2000/svg" viewBox="0 0 27.7 25.9">
    <style>
        .st0{fill-rule:evenodd;clip-rule:evenodd;fill:#62bc9e}
    </style>
    <path class="st0" d="M7.4 25.9h-5c-1.1 0-1.2-1.1-1.2-1.1S0 12.4 0 11.8c0-.6.9-.8.9-.8h6.5v14.9zm1.3-.8l.8.3c.8-.6 1.6.5 2 .5h11.4s1.6-.6 2.1-1.4c.5-.9-.7-1.7-.7-1.7s1.9-.7 2.2-1.7c.3-1.1-1.3-1.8-1.3-2 2.9-.7 1.3-3.4 1.3-3.4s-.4-.7-.8-.9c1.5 0 3-2.3 1-4.8-1.8-.1-7.3 0-7.3 0s.9-2.6.7-4c-.2-1.3-.7-4.5-2.8-5.5-2.1-1-2.4.7-2.4 1.1 0 .5-.1 4.6-.1 4.6s-3 5.7-5.4 5.8h-.6l-.1 13.1z"/>
</svg>
