<svg id="Слой_1" xmlns="http://www.w3.org/2000/svg" viewBox="0 0 23.4 15.9">
    <style>
        .st0{fill-rule:evenodd;clip-rule:evenodd;fill:#54999c}
    </style>
    <g id="XMLID_38_">
        <path id="XMLID_39_" class="st0" d="M11.6 0C4.4 0 0 7.9 0 7.9s4.4 7.9 11.6 7.9c6.7 0 11.8-7.9 11.8-7.9S18.3 0 11.6 0zm0 11.5c-1.9 0-3.5-1.6-3.5-3.6s1.6-3.6 3.5-3.6c2 0 3.5 1.6 3.5 3.6.1 2-1.5 3.6-3.5 3.6zm.1-5.3c-1 0-1.8.8-1.8 1.8s.8 1.8 1.8 1.8S13.5 9 13.5 8c-.1-1-.9-1.8-1.8-1.8z"/>
    </g>
</svg>
