<svg version="1.1" xmlns="http://www.w3.org/2000/svg" viewBox="0 0 22.7 12.9">
	<path fill-rule="evenodd" clip-rule="evenodd" fill="#00838F" d="M21.8,10.4c-0.7-0.8-1.5-1.5-2.2-2.2c-0.7-0.7-0.7-1-0.2-1.8
		c0.6-0.8,1.2-1.6,1.8-2.5c0.6-0.8,1.1-1.6,1.4-2.5c0.2-0.6,0-0.9-0.6-1c-0.1,0-0.2,0-0.3,0l-3.6,0c-0.4,0-0.7,0.2-0.8,0.6
		c-0.2,0.5-0.4,1.1-0.7,1.6c-0.6,1.2-1.2,2.3-2.1,3.2c-0.2,0.2-0.4,0.5-0.7,0.4c-0.4-0.2-0.5-0.8-0.5-1.1l0-4.2
		c-0.1-0.6-0.2-0.9-0.8-1H8.7c-0.5,0-0.7,0.2-1,0.5C7.5,0.7,7.5,0.8,7.8,0.9C8.4,1,8.8,1.4,8.8,2C9,3,9,4,8.9,5
		c0,0.3-0.1,0.6-0.2,0.9C8.5,6.3,8.2,6.4,7.9,6.1C7.5,5.9,7.3,5.5,7,5.2C6.1,3.9,5.4,2.6,4.8,1.1C4.7,0.7,4.4,0.5,3.9,0.4
		c-1.1,0-2.2,0-3.2,0C0,0.5-0.1,0.8,0.1,1.4C1.3,4,2.6,6.5,4.3,8.8c0.9,1.2,1.9,2.2,3.2,3c1.5,0.8,3.1,1.1,4.7,1c0.8,0,1-0.2,1.1-1
		c0-0.5,0.1-1.1,0.4-1.5c0.3-0.5,0.6-0.6,1.1-0.3c0.2,0.1,0.4,0.3,0.6,0.5c0.4,0.5,0.9,1,1.3,1.4c0.6,0.6,1.3,0.9,2.1,0.9h3.3
		c0.5,0,0.8-0.7,0.5-1.3C22.3,11.1,22.1,10.8,21.8,10.4L21.8,10.4z M21.8,10.4"/>
</svg>
