<svg id="Слой_1" xmlns="http://www.w3.org/2000/svg" xmlns:xlink="http://www.w3.org/1999/xlink" viewBox="0 0 29.1 29.1">
    <style>
        .st0{clip-path:url(#SVGID_2_);fill:#fff}
    </style>
    <defs>
        <path id="SVGID_1_" d="M0 0h29.1v29.1H0z"/>
    </defs>
    <clipPath id="SVGID_2_">
        <use xlink:href="#SVGID_1_" overflow="visible"/>
    </clipPath>
    <path class="st0" d="M14.6 4.7c-5.4 0-9.8 4.4-9.8 9.8s4.4 9.8 9.8 9.8 9.8-4.4 9.8-9.8-4.4-9.8-9.8-9.8zm4.2 9.9c0 2.3-1.9 4.2-4.2 4.2-2.3 0-4.2-1.9-4.2-4.2 0-2.3 1.9-4.2 4.2-4.2 2.3-.1 4.2 1.8 4.2 4.2zm-4.2-8.5c1.8 0 3.5.6 4.9 1.6l-2 2c-.8-.5-1.8-.8-2.8-.8-1 0-2 .3-2.8.8l-2-2c1.2-1 2.8-1.6 4.7-1.6zm-8.5 8.5c0-1.8.6-3.5 1.6-4.9l2 2c-.5.8-.8 1.8-.8 2.8 0 1 .3 2 .8 2.8l-2 2c-1-1.3-1.6-2.9-1.6-4.7zm8.5 8.4c-1.8 0-3.5-.6-4.9-1.6l2-2c.8.5 1.8.8 2.8.8 1 0 2-.3 2.8-.8l2 2c-1.3 1-2.9 1.6-4.7 1.6zm6.8-3.6l-2-2c.5-.8.8-1.8.8-2.8 0-1-.3-2-.8-2.8l2-2c1 1.4 1.6 3 1.6 4.9 0 1.7-.6 3.3-1.6 4.7zm0 0"/>
</svg>
