<svg xmlns="http://www.w3.org/2000/svg" x="0px" y="0px" viewBox="-290.4 410.5 19.6 19.6">
<path d="M-280.6,410.5c-5.4,0-9.8,4.4-9.8,9.8c0,5.4,4.4,9.8,9.8,9.8c5.4,0,9.8-4.4,9.8-9.8C-270.8,414.9-275.2,410.5-280.6,410.5z
	 M-276.4,420.4c0,2.3-1.9,4.2-4.2,4.2c-2.3,0-4.2-1.9-4.2-4.2c0-2.3,1.9-4.2,4.2-4.2C-278.3,416.1-276.4,418-276.4,420.4z
	 M-280.6,411.9c1.8,0,3.5,0.6,4.9,1.6l-2,2c-0.8-0.5-1.8-0.8-2.8-0.8s-2,0.3-2.8,0.8l-2-2C-284.1,412.5-282.5,411.9-280.6,411.9z
	 M-289.1,420.4c0-1.8,0.6-3.5,1.6-4.9l2,2c-0.5,0.8-0.8,1.8-0.8,2.8s0.3,2,0.8,2.8l-2,2C-288.5,423.8-289.1,422.2-289.1,420.4z
	 M-280.6,428.8c-1.8,0-3.5-0.6-4.9-1.6l2-2c0.8,0.5,1.8,0.8,2.8,0.8s2-0.3,2.8-0.8l2,2C-277.2,428.2-278.8,428.8-280.6,428.8z
	 M-273.8,425.2l-2-2c0.5-0.8,0.8-1.8,0.8-2.8s-0.3-2-0.8-2.8l2-2c1,1.4,1.6,3,1.6,4.9C-272.2,422.2-272.8,423.8-273.8,425.2z"></path>
</svg>
